<svg xmlns="http://www.w3.org/2000/svg" viewBox="0 0 80.6 113.4"><defs><style>.a{fill:#e6a329;}.b{fill:#f1bf22;}.c{fill:#fff;}.d{fill:#ebebeb;}.e{fill:#231f20;}</style></defs><title>js</title><polygon class="a" points="80.6 22.2 40.3 22.2 40.3 22.2 0 22.2 7.5 104.1 40.3 113.4 40.3 113.4 40.3 113.4 40.3 113.4 40.3 113.4 73 104.1 80.6 22.2"/><polygon class="b" points="40.3 28.9 40.3 106.5 40.3 106.5 66.8 98.9 73.2 28.9 40.3 28.9"/><polygon class="c" points="61.4 38.9 20.6 38.9 17.8 69.6 17.8 69.4 52.5 69.4 51.3 82.4 40.3 85.6 29.1 82.3 28.4 74.5 18.2 74.5 19.7 90.2 40.3 96 60.9 90.2 63.7 59.4 27 59.4 27.5 49.1 53 49.1 53.3 55 63.6 55 61.4 38.9"/><path class="d" d="M70.9,53.1H51.2L48.4,83.8v-.2H70.9v-10H59l.5-10.3H70.9ZM59,88.7H48.8l1.5,15.6,20.6,5.9V99.7L59.7,96.5Z" transform="translate(-30.6 -14.2)"/><polygon class="e" points="32.4 10.1 25.3 10.1 25.3 15.3 32.4 15.3 36.3 15.3 37.6 15.3 37.6 0 32.4 0 32.4 10.1"/><path class="e" d="M85.9,14.3H73.4v5.3c1.6,1.7,2.5,2.5,4.9,4.9H73.4v4.9H85.9V24.5l-5-4.9h5Z" transform="translate(-30.6 -14.2)"/></svg>