<svg id="Layer_6" data-name="Layer 6" xmlns="http://www.w3.org/2000/svg" viewBox="0 0 1738.7 1741.61"><defs><style>.cls-1{fill:#fff;}</style></defs><title>occ</title><path class="cls-1" d="M1367.64,1017.14c0,257.46-208.7,466.16-466.16,466.16-256.82,0-466.16-209.34-466.16-466.16C435.32,759.68,644,551,901.48,551a464,464,0,0,1,246.92,70.69,26.66,26.66,0,0,1,4.66,41.45l-55.41,55.41a32.4,32.4,0,0,1-38.36,5.49,333,333,0,0,0-490.62,289.41c-2,185.05,147,335.78,331.42,336.54,186.12.76,337.63-153.07,334.16-339.15a331.11,331.11,0,0,0-40-152.16,32.41,32.41,0,0,1,5.45-38.43l55.37-55.38a26.67,26.67,0,0,1,41.43,4.63A464,464,0,0,1,1367.64,1017.14Z" transform="translate(-169.06 -7.95)"/><path class="cls-1" d="M1076.06,940.62l-78.41,37.7A33.24,33.24,0,0,0,979,1011a77.76,77.76,0,1,1-77.52-71.58,45.87,45.87,0,0,1,9.07,1.33,23.18,23.18,0,0,0,26.19-13l37.2-81.64a23.06,23.06,0,0,0-14.77-31.82,225.5,225.5,0,0,0-57.69-7.95c-117.41,0-212.42,96-210.78,213.8,1.59,113.53,94.24,206.18,207.77,207.77,117.79,1.64,213.81-93.37,213.81-210.78,0-25.54-2.16-43.12-10.49-65.78-2.53-6.88-10.43-15.73-25.73-10.74Z" transform="translate(-169.06 -7.95)"/><path class="cls-1" d="M1893.13,361.25l-263.33-9a9.31,9.31,0,0,0-9.32,9.31v24a33.07,33.07,0,0,1-9.69,23.38l-156,156,.1.09-58.14,58.14a43.67,43.67,0,0,0-5,55.72,592.77,592.77,0,0,1,105.34,338.92c-.34,334.72-274.1,602.07-608.75,594.81-319.13-6.91-575.27-263-582.29-582.09C298.67,695.93,565.8,422.13,900.41,421.55a592.78,592.78,0,0,1,338.71,104.9,43.68,43.68,0,0,0,55.68-5.07l70.83-70.83h0l145.63-145.63a33.06,33.06,0,0,1,23.38-9.68h24a9.33,9.33,0,0,0,9.32-9.32l-9-263.33c-.49-14.22-18.55-20-27.17-8.65L1414,168.72A282.79,282.79,0,0,0,1366.29,285l-24.47,146.8A729.12,729.12,0,0,0,901.48,284.72c-404.5,0-732.42,327.92-732.42,732.42S497,1749.56,901.48,1749.56s732.42-327.92,732.42-732.42a729.26,729.26,0,0,0-146.39-439.38l143.16-23.87A282.74,282.74,0,0,0,1747,506.15l154.78-117.73C1913.09,379.8,1907.35,361.74,1893.13,361.25Z" transform="translate(-169.06 -7.95)"/></svg>