<?xml version="1.0" encoding="utf-8"?>
<!-- Generator: Adobe Illustrator 24.0.2, SVG Export Plug-In . SVG Version: 6.00 Build 0)  -->
<svg version="1.1" xmlns="http://www.w3.org/2000/svg" xmlns:xlink="http://www.w3.org/1999/xlink" x="0px" y="0px"
	 viewBox="0 0 1000 1000" style="enable-background:new 0 0 1000 1000;" xml:space="preserve">
<style type="text/css">
	.st0{display:none;}
	.st1{display:inline;stroke:#FFFFFF;stroke-width:5;stroke-miterlimit:10;}
	.st2{display:none;opacity:0.3;}
	.st3{display:inline;}
	.st4{fill:#FFFFFF;}
	.st5{display:inline;stroke:#FFFFFF;stroke-miterlimit:10;}
	.st6{display:inline;fill:#FFFFFF;}
	.st7{fill:#919191;}
	.st8{fill:#FF7878;}
	.st9{fill:url(#SVGID_1_);}
	.st10{fill:#720000;}
	.st11{fill:#C60E00;}
	.st12{fill:#9E0000;}
</style>
<g id="Capa_14" class="st0">
	<rect x="80.5" y="144.5" class="st1" width="835" height="722"/>
</g>
<g id="Capa_1" class="st2">
	<g class="st3">
		<g>
			<path class="st4" d="M423.88,246.54c-34.14,63.65-83.05,117.66-142.11,159.08c-13.04,9.14-26.57,18.56-35.6,31.96
				c-9.59,14.22-11.77,31.63-8.82,48.29c3.18,17.95,12.26,34.15,22.74,48.83c11.03,15.45,23.33,30.09,35.57,44.58
				c29.38,34.79,60.72,67.89,93.79,99.18c1.4,1.33,3.53-0.79,2.12-2.12c-28.54-27.01-55.8-55.35-81.61-84.98
				c-12.65-14.52-24.98-29.32-36.9-44.45c-11.69-14.83-23.17-30.53-29.37-48.57c-6.15-17.9-6.94-38.49,2.65-55.35
				c8.51-14.98,23.14-25.1,36.94-34.78c27.8-19.49,53.58-41.5,76.59-66.49c26.03-28.27,48.43-59.8,66.59-93.66
				C427.38,246.35,424.79,244.83,423.88,246.54L423.88,246.54z"/>
		</g>
	</g>
	<g class="st3">
		<g>
			<path d="M415.32,212.6c-39.27,31.37-76.69,65.03-111.96,100.85c-17.21,17.48-34.49,35.24-50.05,54.22
				c-13.77,16.79-24.68,35.49-27.09,57.42c-4.94,44.97,21.68,87.32,49.04,120.5c30.87,37.44,67.85,69.06,102.48,102.86
				c37.39,36.49,73.01,76.74,92.45,125.94c0.7,1.77,3.6,1,2.89-0.8c-34.37-86.95-114.12-141.47-175.82-207.54
				c-30.98-33.18-63.1-73.24-68.02-120.06c-2.46-23.37,3.94-45.13,17.21-64.36c13.74-19.91,31.42-37.45,48.13-54.85
				c38.43-40.01,79.51-77.43,122.86-112.05C418.95,213.51,416.81,211.4,415.32,212.6L415.32,212.6z"/>
		</g>
	</g>
	<g class="st3">
		<g>
			<path d="M417.46,217.44c13.44-7.43,28.83-7.13,43.52-4.27c14,2.73,28.7,6.72,41.76,12.51c26.67,11.81,36.49,41.76,51.58,64.58
				c15.06,22.76,32.82,43.74,52.78,62.34c20.01,18.65,42.33,33.32,64.95,48.5c11.42,7.66,22.6,15.98,31.52,26.54
				c9.65,11.41,15.57,25.18,18.91,39.65c6.84,29.68,6,62.69-0.95,92.24c-12.56,53.44-48.89,96.72-88.84,132.61
				c-23.9,21.47-49.46,41.17-75.33,60.19c-27.75,20.4-56.49,39.5-86.95,55.64c-1.71,0.9-0.19,3.49,1.51,2.59
				c28.28-14.98,55.09-32.51,80.99-51.28c24.05-17.43,47.73-35.58,70.33-54.88c41.15-35.15,80.1-76.87,97.09-129.39
				c9.62-29.71,11.65-62.06,7.75-92.96c-1.73-13.73-5.01-27.39-11.26-39.8c-6.19-12.27-15.42-22.46-25.99-31.11
				c-10.77-8.81-22.65-16.12-34.27-23.73c-12.36-8.1-24.27-16.84-35.53-26.41c-22.29-18.94-42.18-40.72-58.96-64.68
				c-8.24-11.76-15.41-24.09-22.47-36.58c-6.56-11.61-13.87-23.27-25.04-30.97c-11.59-7.98-26.12-11.64-39.52-15.31
				c-13.04-3.57-26.85-6.43-40.42-4.69c-6.61,0.85-12.84,2.88-18.67,6.1C414.26,215.78,415.77,218.38,417.46,217.44L417.46,217.44z"
				/>
		</g>
	</g>
	<g class="st3">
		<g>
			<path d="M347.47,398.41c-1,15.64,3.94,34.21,15.9,45.1c5.8,5.28,13.77,5.32,21.17,4.69c7.62-0.65,15.6-2.47,21.44-7.73
				c4.73-4.26,7.87-10.92,6.78-17.36c-1.08-6.43-6.15-10.78-11.7-13.56c-15.15-7.6-32.47-10.44-42.98-25.19
				c-2.54-3.57-8.03-11.17-12.96-5.77c-2.2,2.41-1.06,6.11-0.62,8.96c0.93,6.12,1.87,12.24,2.8,18.35c0.29,1.9,3.18,1.09,2.89-0.8
				c-0.79-5.15-1.57-10.3-2.36-15.46c-0.27-1.76-1.5-5.36-1-6.84c3-2.71,5.22-2.67,6.68,0.13c0.52,0.77,1.04,1.54,1.55,2.31
				c3.65,5.21,8.26,9.5,13.57,12.98c6.14,4.02,12.94,6.93,19.79,9.49c6.76,2.53,15.35,4.71,19.54,11.18
				c5.36,8.27-0.7,18.14-8.27,22.34c-7.32,4.05-19.63,5.82-27.79,3.55c-8.88-2.47-14.32-12.72-17.52-20.78
				c-3.24-8.16-4.47-16.85-3.91-25.6C350.59,396.48,347.59,396.49,347.47,398.41L347.47,398.41z"/>
		</g>
	</g>
	<g class="st3">
		<g>
			<path d="M531.32,354.78c-0.71,9.48-5,18.42-12.29,24.61c-6.78,5.75-15.84,8.05-22.32,14.23c-10.68,10.17-6.33,25.94,7.31,30.75
				c12.72,4.48,30.02-0.51,35.06-13.87c3.02-8.01,2.85-17.74,3.11-26.18c0.29-9.13-0.36-18.17-3.24-26.88
				c-0.6-1.82-3.5-1.04-2.89,0.8c2.61,7.88,3.34,16.01,3.18,24.28c-0.14,7.35-0.31,15.15-1.73,22.38
				c-1.66,8.48-7.13,14.36-15.41,16.81c-7.59,2.24-16.85,1.73-23.09-3.56c-7.37-6.25-7-15.99-0.19-22.4
				c5.44-5.12,12.75-7.46,18.85-11.6c9.87-6.7,15.76-17.54,16.64-29.36C534.46,352.86,531.46,352.86,531.32,354.78L531.32,354.78z"
				/>
		</g>
	</g>
	<g class="st3">
		<g>
			<path d="M349.55,392.92c8.67,5.73,4.52,19.7,13.78,25.58c5.13,3.26,12.06,3.54,17.95,4.14c8.11,0.83,16.25,1.05,24.4,0.78
				c-0.43-0.75-0.86-1.5-1.3-2.26c-2.99,5.05-14.95,3.04-19.44,1.94c-5.97-1.46-11.57-4.34-16.19-8.39
				c-8.58-7.52-11.49-19.15-19.27-27.33c-1.08-1.13-2.82,0.06-2.51,1.46c2.15,9.6,4.24,19.22,6.45,28.81
				c1.39,6.05,3.2,12.49,9.04,15.67c5.79,3.15,13.46,2.62,19.73,1.64c8.23-1.28,15.89-4.52,22.7-9.28c1.18-0.83,0.81-2.78-0.76-2.8
				c-14.57-0.18-28.7-3.44-41.85-9.71c-1.38-0.66-2.71,0.67-2.05,2.05c8.33,17.54,31.31,24.86,48.32,15.65
				c1.09-0.59,0.91-2.49-0.36-2.74c-10.32-2.05-20.65-4.1-30.97-6.14c-4.38-0.87-9.09-2.37-13.55-2.69
				c-1.71-0.12-3.1-0.28-4.22,1.32c-2.83,4.02,0.2,11.85,3.09,15.04c3.99,4.39,10.49,5.33,15.41,2.03c0.94-0.63,1.03-2.55-0.36-2.74
				c-10.6-1.43-19.41-7.82-24-17.49c-0.43,0.75-0.86,1.5-1.3,2.26c8.66,0.91,11.81,12.01,19.93,14.59
				c6.78,2.15,14.27-1.64,17.03-8.02c0.67-1.55-1-2.96-2.36-1.82c-10.23,8.64-25.43,4.57-29.94-8.01c-0.91,0.39-1.83,0.77-2.74,1.16
				c4.97,7.46,10.59,15.73,19.62,18.48c3.69,1.12,7.73,1.28,11.42,0.08c1.64-0.54,3.17-1.35,4.52-2.44
				c1.58-1.28,5.12-6.92,7.69-4.66c0-0.71,0-1.41,0-2.12c-8.32,7.3-18.87,14.57-29.75,17.39c-13.15,3.41-12.6-11.44-15.98-19.7
				c-0.73,0.56-1.47,1.13-2.2,1.69c8.81,4.53,12.82,15.74,22.79,18.39c10.74,2.86,19.95-6.41,26.31-13.72
				c1.26-1.45-0.71-3.47-2.12-2.12c-5.38,5.13-11.39,9.13-18.18,12.15c-1.44,0.64-0.61,2.75,0.76,2.8
				c12.56,0.37,24.16-5.62,31.24-15.97c1.09-1.6-1.51-3.1-2.59-1.51c-6.49,9.48-17.19,14.83-28.65,14.48
				c0.25,0.93,0.5,1.86,0.76,2.8c7.01-3.13,13.23-7.33,18.78-12.62c-0.71-0.71-1.41-1.41-2.12-2.12
				c-6.63,7.61-16.89,17.85-27.53,11.06c-6.9-4.4-10.49-12.38-17.93-16.2c-1.03-0.53-2.74,0.38-2.2,1.69
				c3.27,8,3.02,21.97,14.54,22.52c6.02,0.29,12.63-3.42,17.81-6.13c6.65-3.48,12.75-7.82,18.38-12.76c0.58-0.51,0.58-1.61,0-2.12
				c-1.85-1.62-4.01-1.9-6.24-0.76c-4.21,2.14-5.6,6.59-10.79,7.6c-11.94,2.33-20.04-9.14-25.74-17.69
				c-0.89-1.33-3.35-0.53-2.74,1.16c5.31,14.81,22.94,19.48,34.96,9.33c-0.79-0.61-1.57-1.21-2.36-1.82
				c-1.82,4.2-5.71,7.07-10.38,7.12c-4.45,0.05-7.64-2.94-10.49-5.98c-3.95-4.2-7.4-8.57-13.49-9.21c-1.24-0.13-1.73,1.34-1.3,2.26
				c4.88,10.28,14.51,17.35,25.79,18.87c-0.12-0.91-0.24-1.83-0.36-2.74c-6.07,4.07-12.83-0.41-14.38-6.89
				c-0.38-1.59-0.72-3.25,0.21-4.69c1.14-1.79,1.48-1.15,3.53-0.75c2.9,0.58,5.81,1.15,8.71,1.73c10.97,2.18,21.94,4.35,32.91,6.53
				c-0.12-0.91-0.24-1.83-0.36-2.74c-15.67,8.48-36.6,1.46-44.21-14.58c-0.68,0.68-1.37,1.37-2.05,2.05
				c13.63,6.49,28.26,9.93,43.36,10.12c-0.25-0.93-0.5-1.86-0.76-2.8c-5.9,4.12-12.43,7.1-19.51,8.54
				c-6.5,1.32-15.94,2.4-21.51-2.01c-5.26-4.16-5.96-12.41-7.33-18.53c-1.72-7.68-3.44-15.36-5.16-23.05
				c-0.84,0.49-1.67,0.97-2.51,1.46c5.68,5.97,8.49,13.69,13.14,20.36c3.55,5.09,8.22,9.3,13.67,12.26
				c5.42,2.95,11.5,4.69,17.66,5.01c4.86,0.25,12.32,0.32,15.14-4.45c0.57-0.96-0.15-2.3-1.3-2.26c-7.52,0.25-15.04,0.09-22.53-0.6
				c-6.7-0.62-16.85-0.61-21.18-6.7c-5.06-7.12-2.9-17.5-10.91-22.79C349.45,389.26,347.95,391.86,349.55,392.92L349.55,392.92z"/>
		</g>
	</g>
	<g class="st3">
		<g>
			<path d="M491.27,403.83c16.69,5.03,35.06-3.87,41.77-19.86c-0.96,0-1.93,0-2.89,0c2.36,11.22,1.02,25.93-9.55,32.78
				c-4.33,2.81-9.87,3.85-14.94,2.87c-2.45-0.47-4.78-1.45-6.76-2.98c-0.8-0.62-2.49-1.83-2.78-2.87c-1.09-1.02-0.77-1.84,0.97-2.47
				c0.79-1.67,1.74-1.91,2.83-0.73c1.81,0.41,3.44,1.65,5.36,2.02c2.03,0.39,4.1,0.41,6.14,0.14c4.34-0.56,8.5-2.47,11.84-5.29
				c7.8-6.58,10.22-17.28,10.41-27.04c-0.93,0.25-1.86,0.5-2.8,0.76c6.9,10.02,2.39,23.12-6.94,29.83c-4.03,2.9-8.71,4.8-13.51,5.95
				c-4,0.96-15.52,3.16-15.72-3.79c-0.5,0.5-1,1-1.5,1.5c13.04-1.36,31.49,1.76,37.66-13.4c0.45-1.1-0.84-2.12-1.85-1.85
				c-5.46,1.52-10.91,3.03-16.37,4.55c0.56,0.73,1.13,1.47,1.69,2.2c1.73-3.83,6.08-4.44,9.44-6.25c2.66-1.43,5.05-3.38,7.01-5.67
				c4.11-4.79,6.17-10.79,6.14-17.08c-0.93,0.25-1.86,0.5-2.8,0.76c5.52,8.64,3.12,23.99-2.3,32.23
				c-5.56,8.45-19.88,13.04-26.34,2.83c-0.3,0.73-0.6,1.47-0.9,2.2c6.2-1.84,12.16-4.19,17.95-7.06c0.94-0.47,1.02-2.15,0-2.59
				c-3.83-1.67-7.44-2.12-11.57-1.42c-1.9,0.32-1.09,3.21,0.8,2.89c3.28-0.56,6.18-0.22,9.26,1.12c0-0.86,0-1.73,0-2.59
				c-5.56,2.75-11.28,4.99-17.23,6.75c-0.9,0.27-1.43,1.37-0.9,2.2c6.34,10.03,21.04,8.97,28.6,0.94
				c8.49-9.03,12.12-28.24,5.23-39.03c-0.78-1.22-2.8-0.78-2.8,0.76c0.05,7.76-3.69,15.3-10.4,19.44
				c-4.14,2.55-9.58,3.19-11.78,8.05c-0.51,1.14,0.34,2.58,1.69,2.2c5.46-1.52,10.91-3.03,16.36-4.55
				c-0.62-0.62-1.23-1.23-1.85-1.85c-5.41,13.31-23.5,10.02-34.76,11.2c-0.79,0.08-1.53,0.62-1.5,1.5
				c0.41,14.2,24.85,5.81,31.22,2.07c12.06-7.1,19.16-23.07,10.55-35.58c-0.82-1.2-2.77-0.8-2.8,0.76
				c-0.16,8.14-1.84,16.84-7.55,23.03c-5.49,5.95-14.35,8.37-21.69,4.55c-3.17-1.65-8.59-4-9.6,1.44c-0.77,4.16,3.12,8.31,6.3,10.39
				c8.18,5.36,20.12,3.69,27.1-2.91c9.05-8.55,10.24-22.18,7.81-33.73c-0.34-1.62-2.38-1.22-2.89,0
				c-6.09,14.52-23.1,22.28-38.08,17.76C490.22,400.38,489.43,403.28,491.27,403.83L491.27,403.83z"/>
		</g>
	</g>
	<g class="st3">
		<g>
			<path d="M328.32,401.23c0.31,12.86,1.51,25.69,3.72,38.36c2,11.45,4.01,24.12,9.51,34.52c10.82,20.45,39.39,17.78,58.4,13.3
				c1.61-0.38,1.3-3.16-0.4-2.95c-10.89,1.36-21.87,1.59-32.8,0.45c-9.44-0.98-22.62-2.38-27.84-11.63
				c-2.58-4.57-3.3-10.22-4.39-15.28c-1.14-5.31-2.23-10.62-3.12-15.98c-1.92-11.48-2.78-23.03-1.52-34.63
				c-0.98,0.13-1.96,0.27-2.95,0.4c2.15,12.71,5.19,25.24,9.23,37.48c3.47,10.49,7.15,22.05,13.83,31.02
				c14.34,19.23,37.96,9.98,58.07,12.46c0-1,0-2,0-3c-19.7,1.32-39.37,0.07-58.73-3.8c-1.89-0.38-2.69,2.51-0.8,2.89
				c19.62,3.92,39.57,5.25,59.53,3.91c1.97-0.13,1.89-2.77,0-3c-10.12-1.25-20.18,0.52-30.32,0.36
				c-11.98-0.19-21.49-4.75-27.73-15.2c-5.48-9.16-8.91-19.81-12.09-29.95c-3.49-11.13-6.16-22.48-8.1-33.98
				c-0.3-1.8-2.78-1.14-2.95,0.4c-1.33,12.18-0.28,24.33,1.78,36.37c1.08,6.29,2.41,12.53,3.78,18.77
				c1.09,4.97,2.06,10.14,5.22,14.28c5.53,7.26,15.38,9.25,23.89,10.45c12.62,1.78,25.35,1.78,37.99,0.2
				c-0.13-0.98-0.27-1.96-0.4-2.95c-11.09,2.61-23.01,3.87-34.34,2.01c-11.35-1.86-19.01-8.41-22.97-19.15
				c-7.63-20.69-10-44.26-10.52-66.15C331.27,399.3,328.27,399.3,328.32,401.23L328.32,401.23z"/>
		</g>
	</g>
	<g class="st3">
		<g>
			<path d="M520.46,473.46c15.59-2.71,33.93-6.48,43.3-20.65c10.94-16.55,3.28-37.91,5.7-56.24c-0.98,0.13-1.96,0.27-2.95,0.4
				c3.04,18.74,5.41,37.6,6.87,56.52c0.12,1.53,0.34,3.13,0.26,4.67c-0.22,3.97-3.38,5.38-6.69,6.37
				c-4.13,1.24-8.33,2.23-12.58,2.98c-9,1.58-18.1,1.95-27.2,1.37c0,1,0,2,0,3c8.54,0.28,17.06-0.4,25.42-2.23
				c5.83-1.28,14.88-2.57,19.21-7.17c4.26-4.53,1.63-12.41,0.87-17.79c-1.37-9.8-2.87-19.59-4.47-29.36
				c-0.28-1.71-2.92-1.24-2.95,0.4c-0.11,7.65,0.04,15.34-0.43,22.98c-0.39,6.31-1.36,13.18-5.4,18.29
				c-5,6.32-13.71,7.04-21.09,8.52c-8.18,1.64-16.36,3.29-24.54,4.93c-1.89,0.38-1.09,3.27,0.8,2.89c9.44-1.9,18.88-3.79,28.32-5.69
				c7.05-1.42,14.22-2.86,18.91-8.81c8.86-11.24,6.26-29.91,6.44-43.12c-0.98,0.13-1.96,0.27-2.95,0.4
				c1.17,7.16,2.3,14.34,3.35,21.52c0.53,3.59,1.04,7.19,1.53,10.78c0.6,4.38,2.28,10.62-2.42,13.28c-5.64,3.2-13.19,4.61-19.5,5.75
				c-6.97,1.25-14.02,1.65-21.09,1.42c-1.94-0.06-1.91,2.88,0,3c10.3,0.66,20.6,0.05,30.72-1.99c6.25-1.26,17.25-2.15,18.59-9.99
				c0.73-4.26-0.31-9.04-0.69-13.3c-0.5-5.58-1.07-11.16-1.71-16.72c-1.29-11.27-2.86-22.5-4.68-33.7c-0.3-1.83-2.75-1.11-2.95,0.4
				c-2.29,17.32,4.93,37.67-4.54,53.53c-8.56,14.34-27.11,17.84-42.25,20.47C517.77,470.89,518.57,473.79,520.46,473.46
				L520.46,473.46z"/>
		</g>
	</g>
	<g class="st3">
		<g>
			<path d="M393.76,498.09c8.82,4.24,9.71,15.76,11.29,24.27c2.06,11.14,3.99,22.3,6.17,33.42c1.54,7.84,4.38,14.44,11.91,18.05
				c8.29,3.98,18.39,4.99,27.44,5.88c21.17,2.09,43.03-0.17,63.21-6.97c8.01-2.7,15.75-6.55,20.47-13.85
				c4.42-6.85,5.58-15.28,6.15-23.25c1.7-23.7,2.57-48.48-4.04-71.54c-0.53-1.85-3.43-1.06-2.89,0.8
				c5.59,19.5,5.36,39.77,4.49,59.86c-0.38,8.75-0.36,17.93-3.27,26.29c-3.68,10.55-12.31,15.73-22.48,19.06
				c-19.19,6.29-39.69,8.51-59.8,6.78c-9.34-0.81-20.71-1.67-29.09-6.31c-9.02-4.99-9.38-16.46-11.05-25.51
				c-1.99-10.78-3.64-21.68-6.03-32.37c-1.54-6.89-4.23-13.95-10.97-17.18C393.54,494.67,392.02,497.25,393.76,498.09L393.76,498.09
				z"/>
		</g>
	</g>
	<g class="st3">
		<g>
			<path d="M385.71,493.09c1.93,0,1.93-3,0-3C383.78,490.09,383.77,493.09,385.71,493.09L385.71,493.09z"/>
		</g>
	</g>
	<g class="st3">
		<g>
			<path d="M311.58,347.79c12.78,18.91,1.27,43.83,11.22,63.93c0.86,1.73,3.45,0.21,2.59-1.51c-9.95-20.09,1.74-44.76-11.22-63.93
				C313.09,344.69,310.49,346.18,311.58,347.79L311.58,347.79z"/>
		</g>
	</g>
	<g class="st3">
		<g>
			<path d="M329.76,408.64c-6.99-20.9-4.35-43.95,5.8-63.38c11.18-21.39,30.17-35.77,53.54-41.47c14.23-3.47,29.01-4.4,43.6-5.17
				c14.96-0.79,29.95-0.99,44.92-0.62c14.28,0.36,29.01,0.78,42.55,5.84c11.58,4.33,21.61,12.04,29.71,21.29
				c20.5,23.42,27.18,54.81,32.77,84.54c0.36,1.9,3.25,1.09,2.89-0.8c-5.31-28.23-11.57-57.56-29.44-80.85
				c-7.34-9.57-16.46-17.94-27.2-23.55c-12.38-6.46-26.24-8.37-40.03-9.07c-16.1-0.81-32.26-0.77-48.36-0.14
				c-15.35,0.6-30.91,1.39-46.02,4.3c-24.29,4.68-44.94,17.15-58.17,38.33c-13.2,21.14-17.42,47.75-9.46,71.55
				C327.48,411.26,330.38,410.48,329.76,408.64L329.76,408.64z"/>
		</g>
	</g>
	<g class="st3">
		<g>
			<path d="M369.87,303.74c8.24,13.1,16.47,26.2,24.71,39.3c6.5,10.34,12.96,21.31,24.27,26.99c10.86,5.45,23.43,5.9,35.33,6.03
				c11.33,0.12,22.05-0.75,29.08-10.77c7.08-10.09,8.96-23.68,11.96-35.34c1.77-6.86,3.53-13.73,5.3-20.59
				c1.84-7.13,4.85-14.79,5.5-22.13c0.89-9.96-10.54-12.16-18.13-12.94c-15.69-1.6-31.5-2.17-47.26-1.83
				c-16.33,0.34-33.51,0.89-49.51,4.45c-12.04,2.68-23.94,9.51-27.04,22.29c-0.45,1.88,2.44,2.68,2.89,0.8
				c3.02-12.45,15.01-18.23,26.6-20.54c12.78-2.55,26.17-3.22,39.17-3.76c12.81-0.53,25.64-0.43,38.43,0.29
				c6.22,0.35,12.48,0.74,18.67,1.49c6.24,0.76,14.01,2.77,13,10.66c-0.79,6.15-3.2,12.53-4.75,18.54
				c-1.61,6.24-3.21,12.48-4.82,18.72c-2.85,11.05-4.75,23.16-9.78,33.49c-2.12,4.35-5.02,8.44-9.24,10.96
				c-5.78,3.46-12.79,3.27-19.29,3.21c-11.12-0.1-22.88-0.3-33.2-4.95c-12.25-5.51-18.8-17.34-25.64-28.22
				c-7.89-12.55-15.79-25.11-23.68-37.66C371.44,300.59,368.84,302.1,369.87,303.74L369.87,303.74z"/>
		</g>
	</g>
	<g class="st3">
		<g>
			<path d="M363.19,302.39c11.49,9.68,21.89,20.46,31.14,32.29c1.19,1.52,3.3-0.62,2.12-2.12c-9.25-11.83-19.66-22.61-31.14-32.29
				C363.84,299.04,361.71,301.15,363.19,302.39L363.19,302.39z"/>
		</g>
	</g>
	<g class="st3">
		<g>
			<path d="M374.07,286.72c7.99,2.34,12.88,12.09,17.12,18.67c4.27,6.63,8.2,13.47,11.78,20.5c7.51,14.74,13.34,30.23,17.6,46.21
				c0.5,1.86,3.39,1.07,2.89-0.8c-4.62-17.35-11.13-34.16-19.52-50.04c-4.23-8-8.92-15.76-14.06-23.22
				c-3.96-5.76-7.96-12.14-15.03-14.21C373.01,283.28,372.22,286.17,374.07,286.72L374.07,286.72z"/>
		</g>
	</g>
	<g class="st3">
		<g>
			<path d="M473.02,373.23c3.05-32.8,6.38-66.44,21.59-96.23c0.88-1.72-1.71-3.24-2.59-1.51c-15.45,30.28-18.9,64.39-22,97.74
				C469.84,375.15,472.84,375.14,473.02,373.23L473.02,373.23z"/>
		</g>
	</g>
	<g class="st3">
		<g>
			<path d="M278.28,440.09c9.79-14.87,24.99-24.81,39.51-34.57c16.06-10.8,32.51-21.02,49.14-30.92
				c16.37-9.74,32.93-19.16,49.52-28.52c14.14-7.98,36.75-25.05,52.25-10.85c1.42,1.3,3.55-0.81,2.12-2.12
				c-9.48-8.68-22.62-6.85-33.44-1.89c-14.57,6.68-28.41,15.6-42.33,23.55c-28.93,16.53-57.59,33.58-85.07,52.44
				c-12.86,8.83-25.59,18.16-34.29,31.37C274.62,440.2,277.22,441.7,278.28,440.09L278.28,440.09z"/>
		</g>
	</g>
	<g class="st3">
		<g>
			<path d="M452.06,334.51c11.63,1.02,21.2,7.89,30.05,14.95c8.46,6.74,16.88,13.45,25.76,19.64
				c18.29,12.76,37.74,23.84,58.05,33.05c9.48,4.3,19.87,7.32,28.97,12.36c12.04,6.68,12.52,18.82,9.36,30.9
				c-5.66,21.66-14.74,42.89-24.66,62.91c-11.2,22.59-24.56,44.05-39.78,64.15c-1.17,1.54,1.44,3.04,2.59,1.51
				c14.69-19.4,27.65-40.06,38.6-61.79c10.55-20.94,20.22-43.25,26.14-65.98c2.33-8.96,3.56-19.38-2.33-27.27
				c-5.66-7.59-15.61-10.24-23.99-13.63c-22.72-9.2-44.5-20.75-64.9-34.34c-11.46-7.63-22.17-16.13-32.97-24.66
				c-9.19-7.25-18.94-13.76-30.89-14.81C450.13,331.34,450.15,334.34,452.06,334.51L452.06,334.51z"/>
		</g>
	</g>
	<g class="st3">
		<g>
			<path d="M281.44,444.88c15.57,23.78,30.33,48.08,44.19,72.9c12.58,22.53,22.88,48.02,41.49,66.42c9,8.9,19.44,16.25,29.66,23.64
				c10.04,7.26,20.35,14.33,31.81,19.19c24.22,10.26,51.26,8.73,76.44,3.18c22.09-4.87,57.69-13.52,56.78-42.57
				c-0.06-1.93-3.06-1.93-3,0c0.88,27.97-35.3,35.6-56.35,40.06c-25.17,5.34-52.1,6.32-75.9-4.84
				c-10.61-4.98-20.24-11.77-29.69-18.64c-9.78-7.1-19.71-14.16-28.25-22.75c-17.6-17.7-27.5-42.01-39.48-63.54
				c-14.13-25.39-29.19-50.25-45.11-74.55C282.98,441.76,280.38,443.26,281.44,444.88L281.44,444.88z"/>
		</g>
	</g>
	<g class="st3">
		<g>
			<path d="M448.98,239.85c-2.34,13.05-1.85,26.16,1.51,38.99c0.49,1.87,3.38,1.07,2.89-0.8c-3.22-12.3-3.75-24.88-1.51-37.4
				C452.21,238.76,449.32,237.95,448.98,239.85L448.98,239.85z"/>
		</g>
	</g>
	<g class="st3">
		<g>
			<path d="M449.76,213.99c-35.86,12.44-72.52,25.2-103.78,47.28c-29.43,20.79-48.73,50.28-71.31,77.66
				c-12.6,15.28-26.57,29.5-43.87,39.44c-1.67,0.96-0.16,3.55,1.51,2.59c29.73-17.08,49.02-45.97,69.83-72.26
				c10.93-13.81,22.57-27.04,36.35-38.09c15.3-12.26,32.54-21.91,50.33-30.05c20.06-9.18,40.91-16.46,61.73-23.68
				C452.37,216.25,451.59,213.35,449.76,213.99L449.76,213.99z"/>
		</g>
	</g>
	<g class="st3">
		<g>
			<path d="M447.87,220.41c29.48,9.44,58.01,22.29,84.26,38.75c12.53,7.86,24.42,16.88,33.93,28.3
				c9.26,11.11,16.16,23.91,23.61,36.24c15.51,25.68,36.02,46.99,56.75,68.47c10.09,10.46,19.58,20.98,22.66,35.61
				c3.12,14.78,2.61,30.85,1.62,45.85c-2.27,34.36-11.63,68.06-27.23,98.75c-0.87,1.72,1.71,3.24,2.59,1.51
				c13.81-27.18,22.79-56.6,26.4-86.88c1.83-15.39,2.32-31,1.25-46.47c-0.98-14.07-4.54-26.35-13.4-37.51
				c-9.46-11.91-20.97-22.29-31.34-33.4c-11.28-12.09-22.09-24.67-31.15-38.53c-8.29-12.69-15.19-26.26-24.08-38.56
				c-8.31-11.5-18.51-21.09-30.05-29.28c-28.59-20.29-61.74-35.08-95.02-45.73C446.82,216.92,446.03,219.82,447.87,220.41
				L447.87,220.41z"/>
		</g>
	</g>
	<g class="st3">
		<g>
			<path d="M230.8,375.22c-16.24,32.8-7.05,70.22,2.6,103.53c11.32,39.09,22.45,78.47,25.06,119.3c1.48,23.26,0.05,46.6-5.43,69.3
				c-0.45,1.88,2.44,2.68,2.89,0.8c9.18-38,6.86-77.34-0.46-115.44c-3.78-19.64-8.83-39.01-14.35-58.23
				c-5.2-18.09-10.93-36.09-14.07-54.69c-3.58-21.25-3.39-43.37,6.34-63.04C234.24,375.01,231.66,373.49,230.8,375.22L230.8,375.22z
				"/>
		</g>
	</g>
	<g class="st3">
		<g>
			<path d="M252.39,459.45c21.68,37.93,26.66,82.11,42.49,122.34c7.34,18.65,17.26,35.98,30.71,50.91
				c13.48,14.97,29.67,27.31,46.83,37.77c19.51,11.89,40.34,21.42,61.39,30.24c1.78,0.74,2.55-2.16,0.8-2.89
				c-37.18-15.57-74.89-33.85-103.21-63.27c-29.95-31.11-40.37-71.92-51.72-112.3c-6.23-22.16-13.23-44.23-24.7-64.31
				C254.03,456.26,251.43,457.77,252.39,459.45L252.39,459.45z"/>
		</g>
	</g>
	<g class="st3">
		<g>
			<path d="M638.83,509.7C615.77,576.06,578.11,636.9,529,687.14c-1.35,1.38,0.77,3.51,2.12,2.12
				c49.47-50.62,87.37-111.91,110.6-178.77C642.36,508.67,639.46,507.88,638.83,509.7L638.83,509.7z"/>
		</g>
	</g>
	<g class="st3">
		<g>
			<path d="M663.97,521.96c-17.7,24.99-21.84,57.73-26.27,87.27c-5.02,33.5-7.67,67.32-7.98,101.19c-0.02,1.93,2.98,1.93,3,0
				c0.31-33.6,2.88-67.16,7.87-100.39c4.4-29.27,8.44-61.79,25.97-86.55C667.67,521.9,665.07,520.4,663.97,521.96L663.97,521.96z"/>
		</g>
	</g>
</g>
<g id="Capa_2" class="st0">
	<path class="st5" d="M368.42,384.22c0,0-16.91,52.53,5.46,56.25c22.37,3.72,44.86,6.27,51.27-6.42
		c6.41-12.68-10.69-19.9-21.02-24.8c-10.33-4.9-23.61-18.84-26.56-27.87C374.61,372.36,368.42,384.22,368.42,384.22z"/>
	<path class="st6" d="M383.23,405.36c0,0-8.37,13.49,1.29,21.32s45.28,3.96,46.79-0.23s-22.58-3.04-30.97-10.83
		C391.94,407.84,393.57,401.53,383.23,405.36z"/>
	<path class="st3" d="M456.36,473.57c0,0,3.25,72.93-6.07,88.36C450.29,561.93,448.9,485.92,456.36,473.57z"/>
	<path class="st3" d="M435.69,481.5c0,0,2.39,75.97-5.38,81.32C430.31,562.82,426.24,493.94,435.69,481.5z"/>
	<path class="st3" d="M474.41,486.43c0,0,7.85,63.71-6.56,77.37C467.85,563.8,469.68,492.64,474.41,486.43z"/>
	<path class="st3" d="M376.54,392.38c0,0,3.28-11.61,19.74-11.02c0,0-14.49,6.02-13.5,20.64L376.54,392.38z"/>
	<path class="st3" d="M369.37,403.99c0,0-7.22-4.52-14.37,0.1c0,0,12.33,0.83,9.4,19.12"/>
	<path class="st3" d="M380.92,423.02c0,0,1.83-0.64,0.82,14.52c-0.48,7.19,5.28,26.69,8.8,27.84c0,0-18.76-14.16-16.73-30.8
		c2.03-16.63-2.35-11.75-2.35-11.75L380.92,423.02z"/>
	<path class="st5" d="M539.36,384.22c0,0,16.91,52.53-5.46,56.25c-22.37,3.72-44.86,6.27-51.27-6.42
		c-6.41-12.68,10.69-19.9,21.02-24.8c10.33-4.9,23.61-18.84,26.56-27.87C533.16,372.36,539.36,384.22,539.36,384.22z"/>
	<path class="st6" d="M524.54,405.36c0,0,8.37,13.49-1.29,21.32c-9.66,7.84-45.28,3.96-46.79-0.23s22.58-3.04,30.97-10.83
		C515.84,407.84,514.21,401.53,524.54,405.36z"/>
	<path class="st3" d="M531.23,392.38c0,0-3.28-11.61-19.74-11.02c0,0,14.49,6.02,13.5,20.64L531.23,392.38z"/>
	<path class="st3" d="M538.41,403.99c0,0,7.22-4.52,14.37,0.1c0,0-12.33,0.83-9.4,19.12"/>
	<path class="st3" d="M526.86,423.02c0,0-1.83-0.64-0.82,14.52c0.48,7.19-5.28,26.69-8.8,27.84c0,0,18.76-14.16,16.73-30.8
		c-2.03-16.63,2.35-11.75,2.35-11.75L526.86,423.02z"/>
	<path class="st3" d="M581.21,415.09c-0.27-45.33-11.77-69.01-20.67-80.57C527.53,289.34,461,295,454,295s-73.75-5.66-106.76,39.53
		c-8.89,11.55-20.4,35.24-20.67,80.57c-1.14,23.3,0.69,51.08,12.93,67.41c5.15,6.86,12.04,10.55,19.69,12.11
		C368.82,496.58,411,494,429,468c0,0-37,21-68.5,9.5c-17.39-6.35-21.6-29.11-24.5-45.5c-5.17-29.28,1.81-64.59,16-91
		c14-23,31.07-16.46,54-8c19,9,68,7,90,1c31-8,42-20,59.78,7c14.19,26.41,21.17,61.72,16,91c-2.9,16.39-7.11,39.15-24.5,45.5
		c-31.5,11.5-68.5-9.5-68.5-9.5c18,26,60.18,28.58,69.81,26.61c7.65-1.56,14.54-5.25,19.69-12.11
		C580.52,466.17,582.35,438.39,581.21,415.09z"/>
	<path class="st3" d="M543.78,480.5c0,0-28,2-33,50c-1.13,10.8-4.7,21.46-11.75,29.86c-7.69,9.17-19.97,14.34-31.46,16.71
		c-12.08,2.49-24.83,1.81-36.52-2.16c-8.8-2.99-16.95-8.63-23.14-15.53c-6.79-7.56-9.88-18.97-10.91-28.87c-5-48-33-50-33-50
		s-3.32,4.32-3.32,4.32c0.67-0.88,11.45,9.1,12.43,10.18c3.18,3.52,5.83,7.49,7.91,11.76c3.94,8.06,5.75,16.9,7.28,25.68
		c1.49,8.49,2.72,17.14,5.81,25.24c8.48,22.24,32.58,31.28,54.75,32.4c21.81,1.11,48.43-4.26,60.79-24.19
		c15.13-24.39,2.77-59.75,37.45-81.07L543.78,480.5z"/>
</g>
<g id="Capa_21">
	<path class="st0" d="M687.43,423.16c-10.22-29.93-27.07-55.21-45.07-67.63c-1.57-1.08-3.15-2.17-4.75-3.26
		c-26.68-18.28-54.28-37.19-71.92-83.41c-24.57-64.36-86.2-74.13-112.52-78.3l-2-0.32c-3.78-0.6-7.75-0.91-11.82-0.91
		c-22.73,0-46.14,9.66-61.78,16.93c-10.21,4.76-23.34,11.51-34.32,21.61c-9.41,8.67-14.94,18.88-19.82,27.88
		c-2.23,4.11-4.33,8-6.6,11.36c-16.72,24.77-40.46,46.9-63.42,68.3c-6.37,5.94-12.95,12.07-19.28,18.17
		c-32.75,31.56-41.59,79.22-24.89,134.19c2.05,6.74,4.73,14.7,8.98,22.61c4,7.43,8.64,13.69,13.12,19.74
		c4.69,6.33,9.12,12.31,11.75,18.44C249.85,564.3,253,577.46,253,590c0,34.12-25.08,86.89-38.35,110.05L190,743
		c0,0,37-20,92.96-19.13c16.67,0.26,32.5,1.35,44.55,3.79c3.26,0.66,6.22,1.4,8.84,2.22c2.27,0.7,3.96,1.36,5.18,1.91
		c-2.69,14.67-17.39,35.35-26.09,48.23C306,794,287,816,287,816s74-7,202.29-47.32c73.63-23.14,147.04-46.39,147.78-46.62
		l14.92-4.75l-1.03-15.63c-4.32-65.49,12.89-110.48,28.07-150.17c4.84-12.66,9.41-24.62,13.1-36.66
		C700.24,488.35,698.57,455.79,687.43,423.16z"/>
	<g id="Capa_9">
	</g>
	<g id="Capa_11" class="st0">
		<g class="st3">
			<path class="st7" d="M363.95,402.7c-0.21,1.22-1.65,3.47-2.24,4.3c-0.59,0.82-1.06,4.55-0.94,5.45s0.94,1.84,0.59,3.49
				c-0.35,1.65-1.18,3.21-1.18,4.9c0,1.69,0.35,4.51,1.06,6.04s3.07,5.77,2.71,6.3s-0.95,1.47-0.59,3c0.35,1.53,4.35,5.76,4.82,6.12
				c0.47,0.35,4.47,1.11,5.18,1.55c0.71,0.45,3.76,0.45,4,0.8s1.02,0.82,1.98,2c0.96,1.18,4.37,4.71,4.96,5.29
				c0.59,0.59,2.35,2.71,2.82,3.06s1.53,0.94,2.12,1.53c0.59,0.59,2.29,3.18,2.29,3.18s-0.3-3.06,0.18-4.01
				c0.47-0.94,1.18-1.88,0.47-2.59c-0.71-0.71-1.06-0.84-1.88-1.78c-0.82-0.93-2.12-1.75-2.24-2.58c-0.12-0.82,0-3.44,0-3.44
				s0.94,0.56,2.94,0s3.42-0.91,3.42-0.91s1.75-0.12,2.93,0c1.18,0.12,7.29-0.12,7.76,0s5.73,0.09,8.71-1.53
				c2.97-1.62,6.59-4,6.94-5.29C421.12,436.29,363.95,402.7,363.95,402.7z"/>
		</g>
		<g class="st3">
			<path class="st7" d="M370,519.99c0.65,0.02,0.53-0.61,1.94,0.89c1.41,1.5,1.15,1.41,1.94,1.85s1.39,0.88,2.61,0.71
				c1.22-0.17,3.56-0.48,4.09-0.81c0.53-0.33,3.72-0.2,4.41-0.17c0.69,0.03,1.07-1.36,3.18-0.78c2.11,0.59,2.65-0.35,3.35,0
				c0.71,0.35,2.4,1,2.4,1s-0.16-0.12,0,0.41s-1.26,1.32-1.7,1.5c-0.44,0.18-2.12,0.04-3.18-0.42c-1.06-0.46-2.07-1.61-3.07-1.66
				c-1-0.05-4.08,0.63-4.74,0.37c-0.66-0.26-1.66-0.18-2.13,0.9s-3,1.96-3.72,1.96c-0.72,0-2.4,0.26-3.55,0.18
				c-1.15-0.09-3-0.79-3-0.79l-1.59,1.76l2.22,0.85c0,0,1.22,0.74,1.39,1.8s0.18,1.41-0.26,2.03c-0.44,0.62-0.88,1.15-0.97,1.41
				s-1.59,0.44-1.94-1.24c-0.35-1.68-2.78-7.94-2.78-7.94L370,519.99z"/>
		</g>
	</g>
	<g id="Capa_10">
	</g>
	<g id="Capa_8">
	</g>
	<rect x="0" y="0.28" class="st8" width="1000" height="1000"/>
</g>
<g id="Capa_12">
	<radialGradient id="SVGID_1_" cx="500" cy="500" r="500" gradientUnits="userSpaceOnUse">
		<stop  offset="0" style="stop-color:#FFFFFF"/>
		<stop  offset="1" style="stop-color:#FF7878"/>
	</radialGradient>
	<circle class="st9" cx="500" cy="500" r="500"/>
</g>
<g id="Capa_6">
	<g>
		<g>
			<g>
				<path class="st10" d="M556.69,646.07c5.55-3.22,10.96-6.74,16.19-10.59l14.8-10.88l-18.02,3.55c-3.2,0.63-6.45,1.29-9.72,1.96
					c-17.97,3.67-36.55,7.47-54.54,7.47c-4.48,0-8.81-0.24-12.87-0.72c-21.44-2.48-41.74-14.35-60.35-35.3
					c-22.21-25.05-43.25-51.25-62.9-75.93c-5.59-7.02-11.47-13.81-17.16-20.37c-14.74-17.01-28.67-33.08-38.33-53.33
					c-3.08-6.45-6.21-14.07-6.15-21.69l0.07-8.73l-6.77,5.53c-3.28,2.68-6.38,5.28-9.31,7.82c16.1-19.28,36.66-37.57,65.25-58.19
					c4.65-3.35,9.54-6.74,14.27-10.01c16.57-11.46,33.71-23.3,47.32-38.35c5.81-6.42,12.51-12.61,19.35-17.9
					c5.48-4.25,11.12-8,16.79-11.17c2.29-1.28,4.63-2.49,6.94-3.6l21.12-10.09l-23.29,2.31c-2.92,0.29-5.86,0.63-8.82,1.03
					c14.72-3.78,28.44-5.69,41.07-5.69c12.75,0,24.4,1.96,34.63,5.83l0.59,0.59l1.13,0.01c16.96,5.08,33.77,15.41,49.98,30.71
					c27.17,25.67,57.71,51.68,96.86,68.08l2.4,1c6.76,2.79,13.14,5.43,18.08,9.92c33.97,30.82,2.55,93.5-17.98,119.03
					c-12.86,16-23.57,33.47-33.92,50.36c-5.55,9.06-11.29,18.44-17.29,27.45c-5.57,8.36-11.81,16.83-19.66,22.14
					C590.44,629.14,573.78,638.41,556.69,646.07z"/>
			</g>
		</g>
		<g>
			<g>
				<path class="st4" d="M355.02,356.91c4.08,46.55,9,100.37,27.15,143.33c15.23,36.04,31.67,73.12,65.45,95.42
					c20.61,13.61,44.11,19.7,68.72,19.21c31.98-0.64,68.08-1.62,92.88-24.85c30.21-28.3,39.23-73.4,49.05-111.8
					c5.47-21.39,9.79-43.08,12.74-64.96c1.59-11.76,2.78-23.57,3.53-35.41c0.39-6.08,0.66-12.17,0.82-18.26
					c0.08-3.03,2.07-16.55,0.09-18.56c0,0-72.18-73.36-72.18-73.36l-159.14-22.83l-106.27,37.61l-11.39,80.52l4.25,14.8
					C336.11,373.49,349.4,361.03,355.02,356.91z"/>
			</g>
		</g>
		<g>
			<path class="st10" d="M491.65,287.31c11.93,0,22.82,1.77,32.39,5.28l1.18,1.16h2.18c16.15,4.96,32.21,14.91,47.75,29.58
				c27.45,25.94,58.34,52.23,98.09,68.88c0.8,0.34,1.61,0.67,2.42,1.01c6.42,2.65,12.48,5.16,16.89,9.17
				c13.33,12.1,16.95,30.76,10.75,55.47c-5.83,23.24-18.89,45.18-29.17,57.96c-13.02,16.2-23.8,33.78-34.21,50.78
				c-5.53,9.03-11.26,18.37-17.21,27.32c-5.34,8.02-11.28,16.11-18.54,21.02c-1.6,1.08-3.2,2.14-4.82,3.19l-30.48,6.01
				c-3.21,0.63-6.47,1.3-9.75,1.97c-17.77,3.63-36.14,7.38-53.71,7.38c-4.32,0-8.49-0.23-12.41-0.7
				c-20.4-2.36-39.83-13.78-57.74-33.94c-22.15-24.98-43.15-51.13-62.76-75.77c-5.64-7.09-11.55-13.91-17.27-20.51
				c-14.56-16.8-28.31-32.66-37.72-52.41c-2.87-6.03-5.8-13.1-5.75-19.89l0.09-11.19c12.91-12.64,28.37-25.34,47.45-39.1
				c4.62-3.33,9.49-6.7,14.21-9.96c16.76-11.59,34.09-23.57,48.02-38.96c5.66-6.24,12.17-12.26,18.83-17.42
				c5.31-4.12,10.79-7.76,16.27-10.83c2.22-1.24,4.47-2.41,6.71-3.48l25.11-12C489.53,287.32,490.59,287.31,491.65,287.31
				L491.65,287.31 M491.65,279.11c-25.5,0-59.19,7.53-103.27,29.37c1.93-0.74,14.58-5.53,32.91-9.93
				c11.12-2.68,24.33-5.19,38.52-6.6c-2.46,1.18-4.85,2.42-7.17,3.72c-6.28,3.51-12.06,7.45-17.3,11.5
				c-8.02,6.2-14.73,12.71-19.88,18.39c-17.2,19.01-40.32,32.9-60.95,47.78c-27.72,19.99-53.05,41.3-73.02,67.7
				c-3.29,4.33-6.42,8.81-9.39,13.44c-0.25,0.36-0.42,0.61-0.52,0.78c-0.04,0.05-0.07,0.11-0.1,0.15
				c-4.85,7.62-9.28,15.64-13.21,24.17c7.21-15.62,25.07-32.87,45.28-49.38c-0.07,8.14,3.02,16.1,6.54,23.49
				c13.79,28.91,36.38,49.87,55.98,74.49c20.52,25.78,41.17,51.43,63.04,76.1c16.64,18.73,37.5,33.71,62.93,36.64
				c4.4,0.52,8.86,0.75,13.35,0.75c21.73,0,44.21-5.4,65.05-9.51c-34.46,25.33-77.2,36.41-119.29,43.97
				c56.73-2.91,110.68-22.76,157.59-54.42c8.59-5.81,15.11-14.76,20.78-23.27c17.2-25.85,31.42-53.18,50.99-77.51
				c23.2-28.84,52.92-92.54,17.54-124.63c-6.11-5.55-14.06-8.48-21.66-11.67c-37.1-15.53-66.7-39.95-95.63-67.28
				c-18.04-17.02-35.58-26.96-52.18-31.82c-0.01,0-0.03,0-0.04-0.01C518.79,281.71,506.64,279.11,491.65,279.11L491.65,279.11z"/>
		</g>
		<g>
			<path class="st11" d="M343.01,419.63c0,0,21.9,42.74,69.59,43.46c46.47,0.7,62.34-25.94,62.34-25.94s2.8,63.87-75.05,64.02
				c-58.12,0.12-59.25-37.29-59.25-37.29L343.01,419.63z"/>
		</g>
		<g>
			<path class="st11" d="M393.5,556.27c0,0,66.99-6.71,88.6-47.75c18.89-35.88,19.31-59.47,19.31-59.47s29.79,66.03-8.38,122.18
				c-25.81,37.97-52.81,24.87-52.81,24.87L393.5,556.27z"/>
		</g>
		<g>
			<path class="st11" d="M533.45,454.01c0,0,39.89,113.28-5.04,167.51l54.83-9.36c0,0,18.82-46.19,1.99-95.15
				C568.42,468.06,533.45,454.01,533.45,454.01z"/>
		</g>
		<g>
			<path class="st11" d="M569.24,447.72c0,0,80.39,50.26,64.99,117.26l33.27-68.63C667.5,496.35,649.29,453.02,569.24,447.72z"/>
		</g>
		<path class="st10" d="M568,492c2.23-6.9,4.22-13.89,4.34-17.03c0.24-6.27-0.48-21.95-1.08-25.92s3.25-29.77,2.29-32.91
			c-0.96-3.13-6.03-43.32-11.09-46.86c-5.06-3.54-5.79-18-5.79-18s1.03,17.36,3.65,20.49c2.62,3.13,5.51,10.76,5.51,18.04
			c0,7.28,5.06,26.32,5.06,26.32s0.79,8.92-1.65,14.71s0.12,26.21,0.89,27.57c0.41,0.73-0.64,11.09-2.18,21"/>
		<g>
			<g>
				<path class="st10" d="M447.06,372.37c-8.89-4.22-19.37-13.33-26.93-22.58c-3.55-4.65-1.98-1.64-5.85-8.17
					c-1.57-2.58-2.78-5.06-3.52-7.32c-4.04-12.34-12.5,3.87-12.5,3.87s-23.1,71.78,7.46,76.86c0.02,0,0.03,0.01,0.05,0.01
					c9.38,1.73,2.85,0.63,10.97,1.73c26.63,3.89,51.33,4.74,59.03-10.5C484.54,388.93,461.17,379.07,447.06,372.37z"/>
			</g>
			<g>
				<path class="st10" d="M631.82,338.16c0,0-8.46-16.21-12.5-3.87c-4.04,12.34-22.18,31.38-36.29,38.07
					c-14.11,6.7-37.48,16.55-28.72,33.89c8.76,17.33,39.49,13.85,70.05,8.77C654.92,409.94,631.82,338.16,631.82,338.16z"/>
			</g>
		</g>
		<path class="st4" d="M465.56,396.02c0,0-33.08-6.75-44.07-26.73c0,0-9.93,1.72-8.07,16.33c1.49,11.69,10.63,21.37,30.46,21.5
			S465.56,396.02,465.56,396.02z"/>
		<path class="st4" d="M565.83,394.92c0,0,33.51-4.1,46.05-23.15c0,0,9.76,2.5,6.75,16.92c-2.41,11.54-12.3,20.46-32.07,19.01
			C566.8,406.26,565.83,394.92,565.83,394.92z"/>
		<g>
			<path class="st11" d="M757.03,321.52c-39.62-27.33-86.08-56.02-114.77-131.16c-7.45-19.52-17.86-34.61-29.77-46.36
				c-33.95-33.47-80.2-39.77-105.49-43.82c-27.63-4.43-60.21,8.29-84.7,19.67c-14.02,6.53-28.46,14.32-39.91,24.85
				c-12.82,11.8-19.28,27.85-28.01,42.52c-1.26,2.13-2.57,4.24-3.96,6.3c-31.22,46.24-76.75,84.05-116.68,122.53
				c-42.97,41.41-43.09,102.19-26.83,155.7c2.71,8.88,5.78,17.69,10.19,25.89c10.3,19.13,26.38,34.18,35.03,54.32
				c9.28,21.57,15.77,43.71,15.77,67.4c0,66.43-55.14,162.44-56,163.94c18.87-8.96,23.3,9.56,69.61,18.96
				c5.25,1.07,76.49-19.3,81-17.89c0.77,0.23,1.52,0.48,2.25,0.72c209.39-37.14,366.24-133.61,369.26-135.47
				c-138.15,137.94-283.66,212.5-386.57,250.69c44.73-10.48,409.59-126.56,409.59-126.56c-8.2-124.33,36.89-198.11,57.38-265.06
				S796.66,348.84,757.03,321.52z M680.52,521c-19.57,24.33-33.79,51.66-50.99,77.51c-5.67,8.51-12.19,17.46-20.78,23.27
				c-46.9,31.66-100.86,51.51-157.59,54.42c42.1-7.56,84.83-18.64,119.29-43.97c-25.14,4.96-52.67,11.79-78.4,8.76
				c-25.43-2.94-46.29-17.91-62.93-36.64c-21.87-24.68-42.52-50.32-63.04-76.1c-19.59-24.62-42.19-45.58-55.98-74.49
				c-3.53-7.39-6.61-15.34-6.54-23.49c-20.21,16.5-38.07,33.76-45.28,49.38c3.93-8.53,8.36-16.55,13.21-24.17
				c0.03-0.04,0.05-0.1,0.1-0.15c0.1-0.16,0.27-0.42,0.52-0.78c2.96-4.63,6.09-9.11,9.39-13.44c19.96-26.4,45.29-47.71,73.02-67.7
				c20.63-14.88,43.75-28.77,60.95-47.78c5.15-5.68,11.86-12.19,19.88-18.39c5.23-4.06,11.01-7.99,17.3-11.5
				c2.32-1.3,4.71-2.54,7.17-3.72c-14.18,1.41-27.39,3.92-38.52,6.6c-18.34,4.4-30.99,9.2-32.91,9.93
				c70-34.69,113.79-33.27,140.18-22.95c0.01,0.01,0.03,0.01,0.04,0.01c16.6,4.86,34.14,14.8,52.18,31.82
				c28.92,27.33,58.53,51.74,95.63,67.28c7.6,3.18,15.55,6.12,21.66,11.67C733.44,428.46,703.72,492.16,680.52,521z"/>
		</g>
		<path class="st12" d="M278.19,445.8c0,0,43.16-88.25,58.83-107.38c15.67-19.13,83.82-42.84,83.82-42.84
			c1.29,0.24,25.16-5.55,25.16-5.55h18.57l-5.55,8.68l-44.03,30.94l-29.51,26.04L337.5,388.2l-52.32,55.03L278.19,445.8"/>
		<path class="st12" d="M508.53,634.99c0,0-10.01,29.9-51.6,40.15l36.81-6.07l53.69-18.49l31.99-20.09l-44.69,0.48L508.53,634.99z"
			/>
		<path class="st12" d="M764.88,658.95c0,0-86.48,127.78-220.04,198.19l213.64-71.37l14.47-36.65L764.88,658.95z"/>
		<path class="st12" d="M211.89,783.26c0,0,347.02-58.06,498.44-120.07L552.4,758.04L377.52,798.3l-65.77-2.47L211.89,783.26z"/>
		<path class="st8" d="M616.23,137.66L562.7,96.67l-76.36-6.27l-79.88,20.74c0,0-35.08,32.06-35.08,32.06l-20.86,19.06l-9.43,16.16
			l-57.12,66.43l-82.23,80.88l-22.9,64.09l23.15,82.5c0,0-4.82-98.05,27.97-133.9c34.45-37.66,80.9-62.71,114.09-101.66
			c22.02-25.84,38.93-52.22,63.75-73.58C460.16,118.14,549.74,121.62,616.23,137.66z"/>
		<path class="st8" d="M446.48,239.41c26.4-8.43,54.65-13.27,82.53-10.92c29.55,2.5,54.59,16.36,79.53,31.11
			c-19.54-14.75-34.63-26.63-54.5-35.35c-8.44-3.7-17.5-5.78-26.61-7.19c-36.55-5.64-56.75,0.82-93.62,16.65
			c-21.4,9.19-36.26,20.24-68.48,39.03C365.32,272.74,418.65,248.29,446.48,239.41z"/>
		<g>
			<g>
				<path class="st10" d="M834.13,391.37c-13.96-40.89-36.99-75.43-61.59-92.39c-2.13-1.49-4.3-2.96-6.48-4.45
					c-36.47-24.99-74.16-50.81-98.28-113.96C634.22,92.62,550.01,79.28,514.07,73.58l-2.75-0.44c-5.15-0.82-10.59-1.24-16.14-1.24
					c-31.06,0-63.04,13.2-84.42,23.13c-13.95,6.5-31.89,15.73-46.89,29.53c-12.86,11.86-20.4,25.8-27.07,38.11
					c-3.05,5.62-5.93,10.93-9.03,15.52c-22.84,33.84-55.28,64.08-86.65,93.32c-8.7,8.1-17.69,16.49-26.34,24.83
					c-44.75,43.12-56.82,108.22-34.01,183.34c2.8,9.21,6.45,20.08,12.27,30.88c5.47,10.15,11.8,18.7,17.93,26.97
					c6.42,8.66,12.47,16.83,16.07,25.19c9.24,21.49,13.54,39.47,13.54,56.61c0,46.62-34.27,118.72-52.4,150.36l-33.68,58.68
					c0,0,50.55-27.33,127.01-26.14c22.78,0.34,44.4,1.83,60.87,5.18c4.45,0.9,8.48,1.91,12.06,3.03c3.12,0.96,5.41,1.86,7.08,2.61
					c-3.68,20.04-23.76,48.3-35.63,65.9c-12.9,19.1-38.86,49.16-38.86,49.16s101.11-9.56,276.39-64.65
					c100.59-31.62,200.9-63.38,201.9-63.7l20.4-6.49l-1.41-21.36c-5.9-89.47,17.6-150.94,38.34-205.18
					c6.63-17.3,12.87-33.64,17.9-50.09C851.64,480.43,849.36,435.95,834.13,391.37z M814.42,508.65
					c-20.49,66.95-65.58,140.73-57.38,265.06c0,0-364.86,116.08-409.59,126.56c102.91-38.19,248.42-112.75,386.57-250.69
					c-3.02,1.86-159.87,98.33-369.26,135.47c-0.74-0.25-133.99-10.75-152.86-1.79c0.86-1.5,56-97.51,56-163.94
					c0-23.69-6.49-45.83-15.77-67.4c-8.65-20.14-24.73-35.2-35.03-54.32c-4.41-8.2-7.49-17.01-10.19-25.89
					c-16.26-53.52-16.14-114.29,26.83-155.7c39.94-38.48,85.46-76.29,116.68-122.53c1.39-2.06,2.71-4.17,3.96-6.3
					c8.73-14.67,15.19-30.71,28.01-42.52c11.45-10.53,25.89-18.32,39.91-24.85c24.48-11.38,57.07-24.1,84.7-19.67
					c25.29,4.04,71.54,10.34,105.49,43.82c11.91,11.75,22.33,26.83,29.77,46.36c28.69,75.15,75.15,103.84,114.77,131.16
					S834.91,441.7,814.42,508.65z"/>
			</g>
		</g>
		<g>
			<path class="st10" d="M491.65,287.31c11.93,0,22.82,1.77,32.39,5.28l1.18,1.16h2.18c16.15,4.96,32.21,14.91,47.75,29.58
				c27.45,25.94,58.34,52.23,98.09,68.88c0.8,0.34,1.61,0.67,2.42,1.01c6.42,2.65,12.48,5.16,16.89,9.17
				c13.33,12.1,16.95,30.76,10.75,55.47c-5.83,23.24-18.89,45.18-29.17,57.96c-13.02,16.2-23.8,33.78-34.21,50.78
				c-5.53,9.03-11.26,18.37-17.21,27.32c-5.34,8.02-11.28,16.11-18.54,21.02c-1.6,1.08-3.2,2.14-4.82,3.19l-30.48,6.01
				c-3.21,0.63-6.47,1.3-9.75,1.97c-17.77,3.63-36.14,7.38-53.71,7.38c-4.32,0-8.49-0.23-12.41-0.7
				c-20.4-2.36-39.83-13.78-57.74-33.94c-22.15-24.98-43.15-51.13-62.76-75.77c-5.64-7.09-11.55-13.91-17.27-20.51
				c-14.56-16.8-28.31-32.66-37.72-52.41c-2.87-6.03-5.8-13.1-5.75-19.89l0.09-11.19c12.91-12.64,28.37-25.34,47.45-39.1
				c4.62-3.33,9.49-6.7,14.21-9.96c16.76-11.59,34.09-23.57,48.02-38.96c5.66-6.24,12.17-12.26,18.83-17.42
				c5.31-4.12,10.79-7.76,16.27-10.83c2.22-1.24,4.47-2.41,6.71-3.48l25.11-12C489.53,287.32,490.59,287.31,491.65,287.31
				L491.65,287.31 M491.65,279.11c-25.5,0-59.19,7.53-103.27,29.37c1.93-0.74,14.58-5.53,32.91-9.93
				c11.12-2.68,24.33-5.19,38.52-6.6c-2.46,1.18-4.85,2.42-7.17,3.72c-6.28,3.51-12.06,7.45-17.3,11.5
				c-8.02,6.2-14.73,12.71-19.88,18.39c-17.2,19.01-40.32,32.9-60.95,47.78c-27.72,19.99-53.05,41.3-73.02,67.7
				c-3.29,4.33-6.42,8.81-9.39,13.44c-0.25,0.36-0.42,0.61-0.52,0.78c-0.04,0.05-0.07,0.11-0.1,0.15
				c-4.85,7.62-9.28,15.64-13.21,24.17c7.21-15.62,25.07-32.87,45.28-49.38c-0.07,8.14,3.02,16.1,6.54,23.49
				c13.79,28.91,36.38,49.87,55.98,74.49c20.52,25.78,41.17,51.43,63.04,76.1c16.64,18.73,37.5,33.71,62.93,36.64
				c4.4,0.52,8.86,0.75,13.35,0.75c21.73,0,44.21-5.4,65.05-9.51c-34.46,25.33-77.2,36.41-119.29,43.97
				c56.73-2.91,110.68-22.76,157.59-54.42c8.59-5.81,15.11-14.76,20.78-23.27c17.2-25.85,31.42-53.18,50.99-77.51
				c23.2-28.84,52.92-92.54,17.54-124.63c-6.11-5.55-14.06-8.48-21.66-11.67c-37.1-15.53-66.7-39.95-95.63-67.28
				c-18.04-17.02-35.58-26.96-52.18-31.82c-0.01,0-0.03,0-0.04-0.01C518.79,281.71,506.64,279.11,491.65,279.11L491.65,279.11z"/>
		</g>
		<g>
			<g>
				<path class="st10" d="M677.32,518.38c-12.86,16-23.57,33.46-33.91,50.36c-5.56,9.06-11.3,18.43-17.3,27.45
					c-5.56,8.36-11.8,16.83-19.66,22.13c-16.01,10.82-32.68,20.08-49.76,27.75c5.55-3.22,10.96-6.75,16.19-10.59l14.8-10.88
					l-18.02,3.55c-3.21,0.63-6.45,1.28-9.71,1.95c-17.98,3.68-36.56,7.47-54.54,7.47c-4.48,0-8.81-0.25-12.87-0.72
					c-21.44-2.47-41.74-14.35-60.35-35.29c-22.2-25.06-43.24-51.25-62.89-75.94c-5.59-7.02-11.48-13.8-17.16-20.37
					c-14.74-17.01-28.68-33.08-38.32-53.33c-3.07-6.45-6.22-14.07-6.15-21.68l0.07-8.74l-6.76,5.53c-3.28,2.68-6.38,5.27-9.32,7.82
					c16.09-19.25,36.63-37.53,65.16-58.12c3.92,41.51,9.74,86.53,25.37,123.51c15.22,36.04,31.67,73.11,65.45,95.41
					c20.62,13.61,44.12,19.72,68.72,19.21c31.98-0.64,68.07-1.61,92.88-24.84c30.21-28.3,39.23-73.4,49.05-111.8
					c5.47-21.4,9.78-43.08,12.73-64.97c1.13-8.4,2.06-16.83,2.77-25.28c0.34,0.16,0.7,0.3,1.04,0.45l2.4,1
					c6.76,2.79,13.14,5.44,18.08,9.92C729.27,430.17,697.86,492.85,677.32,518.38z"/>
			</g>
		</g>
		<g>
			<path class="st10" d="M586.81,426.51c1.06-0.12,4.98-3.86,6.43-4.18c1.45-0.32,6.75-0.32,7.55-0.32s10.27-4.92,10.27-4.92h9.5
				l3.8-2.06l-18.78-0.41l-17.89,2.89l-4.1,4.02L586.81,426.51z"/>
			<path class="st10" d="M590.67,367.85c0,0-1.28-3.25-2.98-6.41c-1.25-2.33-2.73-4.61-4.1-5.5c-3.21-2.09-6.44-5.47-9.89-6.43
				c-3.45-0.96-15.18-5.95-17.6-5.3c-2.41,0.64-4.66,3.54-7.88,3.54c-3.21,0-7.72-8.84-10.93-9.32c0,0,5.47,0.8,6.43,3.21
				c0.96,2.41,1.93,4.34,4.5,3.86c2.57-0.48,4.02-2.57,7.55-2.89s5.63-0.48,8.2,0.96c2.57,1.45,6.88,2.25,8.5,3.38
				c1.62,1.13,3.71,3.05,6.92,4.34c3.21,1.29,10.94,2.89,11.26,5.47c0.32,2.57,3.37,3.05,4.82,2.73c1.45-0.32,1.53-2.17,4.18-1.77
				c2.65,0.4,1.87,0.32,4.31,0.48s-2.7,7.88-2.7,7.88l-14.47,6.91c0,0-1.57-2.45-0.48-3.7c1.08-1.25,3.5-2.69,2.41-4.38
				c-1.08-1.69,0-5.3,0-5.3L590.67,367.85z"/>
			<path class="st10" d="M603.98,417.99c-0.05,0.32,1.52,3.21,3.57,4.18c2.05,0.96,3.86,0.36,5.06,3.62s2.05,4.7,3.13,7.11
				s1.03,2.89,3.47,4.94c2.44,2.05,4.97,3.86,4.49,5.43c0,0,0-4.22-1.69-5.43c-1.69-1.21-2.82-2.17-3.64-3.74s-1.66-1.96-1.54-4.23
				s0-4.57-1.21-5.17c-1.21-0.6-2.3-0.96-1.75-2.53s1.15-2.02,2.36-3s2.17-1.74,1.33-3.03s-9.16-1.53-9.16-1.53L603.98,417.99z"/>
			<path class="st10" d="M389.79,517.89c0.37,0.83,4.13,6.16,5.9,5.77c1.77-0.39,4.5-1.66,5.63,0.02c1.13,1.68,4.15,5.86,6.49,5.05
				s6.04-0.48,7.81-1.93s9.81-1.13,11.73-0.32s5.47,1.13,6.59,0.16c0,0-1.74,2.63-8.52,0.96s-12.22,0.69-12.54,1.23
				s-7.23,2.79-9,2.15c-1.77-0.64-3.21-0.74-4.34,0.11c-1.13,0.85-0.8-0.6-0.16,1.98s1.54,3.14,1.13,4.68s-0.96,2.71-1.77,3.03
				c-0.8,0.32-5.63-0.96-7.07-5.63C390.22,530.51,389.79,517.89,389.79,517.89z"/>
			<path class="st10" d="M458.54,603.81c0,0,9.32,0,9.32,0c2.12,0.01,4.23,1.6,6.28,2.04c4.01,0.86,7.95-1.75,11.23-3.73
				c0.31-0.19,0.64-0.39,0.85-0.69c0.58-0.84-0.04-3.07-0.09-4.04c-0.07-1.4-0.14-2.87,0.3-4.22c0.08-0.25,0.22-0.47,0.37-0.69
				c0.87-1.36,1.74-2.72,2.61-4.09c-0.21,0.32,0.27,1.81,0.32,2.25c0.16,1.39,0.18,2.71-0.2,4.07c-0.12,0.44-0.28,0.87-0.31,1.33
				c-0.12,1.52,1.18,3.73,2.44,4.58c0.75,0.5,2.39-0.55,3.03-0.88c1.34-0.69,2.38-1.09,2.66-2.68c0.4-2.25,1.91-4.28,4.06-5.12
				c3.06-1.21,6.14-2.37,9.22-3.54c-0.19,0.85-0.13,1.76,0.16,2.58c0.09,0.27,0.22,0.54,0.46,0.69c0.42,0.28,0.99,0.09,1.44-0.13
				c1.83-0.9,3.42-2.19,4.95-3.53c2.37-2.07,4.37-4.47,6.13-7.08c1.22-1.81,1.68-1.49,3.84-1.3c2.7,0.24,5.39-0.14,7.83-1.35
				c1.22-0.61,2.35-1.4,3.41-2.26c0.37-0.3,1.12-1.27,1.57-1.35c0.5-0.09,4.43,2.14,4.43,2.13c-0.89,2.33-1.85,4.77-3.76,6.37
				c-1.92,1.6-4.43,2.06-6.77,2.7c-0.99,0.27-2.22,0.46-2.94,1.18c-0.89,0.89-1.48,2.65-2.1,3.75c-1.24,2.21-2.55,3.62-1.72,6.19
				c0.23,0.71,0.79,1.42,1.54,1.42c0.32,0,0.63-0.13,0.95-0.15c0.32-0.01,0.7,0.16,0.73,0.48c0.01,0.15-0.05,0.29-0.11,0.43
				c-0.88,1.82-1.79,3.63-2.68,5.45c-1.36,2.74,0.71,3.94,2.53,5.89c0.13,0.13,0.25,0.27,0.31,0.45c0.06,0.17,0.04,0.36,0.03,0.55
				c-0.1,1.13-0.19,2.27-0.28,3.4l-8.85,3.05l-42.26-3.05l-22.5-11.09H458.54z"/>
			<path class="st10" d="M537.3,580.34c0.16-0.64,1.93-11.42-0.16-15.36c-2.09-3.93-0.92-9.24,0.51-10.68s4.16-5.63,3.83-7.39
				s0.03-5.14,0.03-5.14s3.35,4.18,1.58,8.2c-1.77,4.02-2.41,5.63-1.29,11.09s2.46,7.72,3.08,11.09c0.62,3.38,0.74,7.5-2.06,8.81
				s-6.82,0.99-6.82,0.99L537.3,580.34z"/>
			<path class="st10" d="M588.26,603.97c2.09-2.89,3.86-11.57,6.27-13.5c2.41-1.93,4.82-3.21,7.55-3.38
				c2.73-0.16,8.52-3.86,10.45-5.79s1.93-1.93,1.93-1.93s2.69-5.63,3.91-6.59c1.23-0.96,7.18-3.21,9.59-3.38
				c2.41-0.16,2.57,5.19,2.57,5.19l-13.98,16.67l-18,12.7H588.26z"/>
			<path class="st10" d="M393.5,405.05c0,0,1.87,7.83,3.44,9.04c1.57,1.21,1.93,1.69,4.1,2.53c2.17,0.84,4.58,0.12,5.3,0.12
				s1.93,0.12,3.38,0.84c1.45,0.72,3.74,1.93,4.1,2.89c0.36,0.96-0.19,1.37,1.45,2.65c1.64,1.28,2.64,2.81,2.64,2.81l2.94,0.41
				c0,0-0.32-2.01,0-2.61c0.32-0.6,2.01-1.09,2.37-1.45s0.24-1.69,2.53-2.17c2.29-0.48,3.01-0.02,3.62-0.49
				c0.6-0.47,0.76-1.21,1.94-1.1s3.11,0.26,4.19,0.33c1.08,0.07,0.98-2.48,0.98-2.48L393.5,405.05z"/>
			<g>
				<path class="st10" d="M416.71,346.82c1.56,0.64,3.81,1.08,4.14,1.08s2.49,0.72,2.98,1.09c0.48,0.36,1.33,2.41,1.69,2.77
					c0.36,0.36,2.29-0.36,3.13,0c0.84,0.36,1.44-0.72,1.44-1.08s-0.97-1.33,0-2.17c0.97-0.84,1.93-1.21,1.93-1.21
					s-0.84,1.31-0.84,2.04s0.84,3.38,0.84,3.38s0,1.63-0.48,2.5c-0.48,0.87-1.21,1.96-1.45,2.56s-0.85,1.33,0,1.69
					s4.22,0.84,4.22,0.84s0.12,0.36,0.48,1.57s1.09,2.17,1.69,2.41c0.6,0.24,1.08,0.96,2.17,0.72c1.08-0.24,2.53-1.33,2.65-1.69
					c0.12-0.36,0-2.17,0-2.17s-0.5-0.96,0.05-2.29c0.55-1.33,1.51-3.09,1.88-3.17s2.89-1.29,3.5-1.41c0.6-0.12,2.89-0.72,4.34-0.36
					c1.45,0.36,4.46-1.21,5.06-1.93s-1.69,2.41-2.05,2.53s-1.33,1.25-3.5,1.17s-4.34-0.39-4.94,0.25s-2.53,1.84-2.53,1.84
					s-1.33,4.58-0.96,5.18s0,3.01,0,3.01s-0.72,0.12-0.48,0.96c0.24,0.84,1.45,2.33,1.45,2.33l1.21,2.85l-3.26,1.45l-17.48-11.33
					l-10.39-14.47L416.71,346.82z"/>
			</g>
			<path class="st10" d="M594.85,594.16c-0.32-3.7,2.64-30.53,0-33.43c-2.64-2.9-10.61-11.57-13.18-14.79
				c-2.57-3.21-4.34-6.11-3.62-10.29s0.72-16.23,1.37-17.76c0.64-1.53,1.61-11.17-3.05-13.75c0,0,6.14,5.52,6.81,7.25
				c0.67,1.74,1.07,11.07,0.43,13.64c-0.64,2.57,0.96,5.47,0,9.32c-0.96,3.86,1.59,11.25,2.56,11.57c0.97,0.32,5.33,4.18,6.37,5.14
				c1.04,0.96,2.01,8.04,3.77,9.64s3.05,8.68,3.05,8.68s2.57,10.68,2.25,12.58s-2.25,8-2.25,8L594.85,594.16z"/>
			<path class="st10" d="M618.37,576.16c0,0-7.45,0.96-10.34,0c-2.89-0.96-6.4-2.89-6.4-2.89s-2.02-2.54-3.89-1.29
				s-0.64,9.39-0.32,10c0.32,0.61-0.97,3.68-0.69,6.93c0.28,3.25,3.32,3.32,4.9,3.32c1.58,0,17.59-13.07,17.59-13.07L618.37,576.16z
				"/>
			<path class="st10" d="M559.32,411.08c0,0-0.96,3.05,2.41,4.66c3.38,1.61,3.05,1.45,4.1,1.93c1.04,0.48,1.21,0.55,1.85,1.96
				c0.64,1.41,0.74,2.85,1.85,4.31c1.11,1.46,2.33,3.54,2.33,3.54l4.5-0.8l-4.5-12.06L559.32,411.08z"/>
			<path class="st10" d="M577.33,374.42c0,0-3.4-0.79-4.84-1.59c-1.43-0.8-2.49-0.84-3.25-1.71c-0.76-0.87-1.46-1.73-1.46-1.73
				c-0.64,1.13-1.56,2.04-2.83,1.73c-1.27-0.3-2.49-1.83-2.49-1.83l-0.72,1.83l2.25,4.44l1.85,4.43l1.04,2.8L577.33,374.42z"/>
			<path class="st10" d="M584.72,372.98c0,0-4.48-2.19-6.67-0.64c-1.93,1.37-4.27,1.45-4.35,3.7c-0.08,2.25,0.24,3.86,0,4.5
				c-0.24,0.64-0.88,2.73-2.65,2.25c-1.77-0.48-3.86-4.66-3.86-4.66s-1.45-0.84-1.37-1.14s-1.31,0.9-1.98,1.66
				c-0.67,0.76-0.73,0.88-0.83,2.69s-2.01,1.89-2.05,3.28c-0.04,1.38-0.13,3.71-0.65,4.07s2.54,0,2.54,0s17.2-6.55,18.16-7.83
				C581.99,379.57,584.72,372.98,584.72,372.98z"/>
			<path class="st10" d="M588.74,415.9c0,0-0.32,5.95-0.64,9.48s-5.3,6.3-5.95,7.09c-0.64,0.79-5.79,8.83-5.79,8.83l-3.54,4.15
				c0,0-1.23,6.21-1.05,9.22c0.18,3.01-1.68-0.66-1.68-0.66v-13.84l1.77-12.7v-12.86L588.74,415.9z"/>
			<path class="st10" d="M633.34,408.51c0.56,0.16,2.65,1.69,2.81,2.57c0.16,0.88,1.29,3.78,1.77,4.1c0.48,0.32,3.7,0.64,4.1,1.13
				c0,0-1.18-1.77-1.83-1.69s-2.51-0.88-2.51-2.21c0-1.33,0.24-1.81,0-3.26c-0.24-1.45,0.56-2.97,0.8-3.46
				c0.24-0.48,0.8-2.41,0.72-3.3c-0.08-0.88,0.03-2.12-0.55-2.43c-0.58-0.31-3.55,3.23-3.55,3.23s-4.74,4.33-4.9,4.65
				c-0.16,0.33-4.1,4.75-4.1,4.75s1.25,1.13,1.99,1.37c0.74,0.24,3.07-0.08,3.8-0.56c0.72-0.48,0.96-2.01,1.37-2.33
				c0.4-0.32,1.21-0.48,1.45-0.48s2.01-0.08,2.01-0.08L633.34,408.51z"/>
			<path class="st10" d="M411.6,414.29c0,0,3.86,3.38,4.34,6.43c0.48,3.05,0.48,3.38,2.89,6.43s5.47,4.66,7.72,6.75
				s3.54,8.04,3.05,9.32c0,0,1.01-6.91,0.1-8.36c-0.9-1.45-5.01-5.66-6.21-5c-1.19,0.66-1.77-2.24-2.65-3.52
				c-0.88-1.29-1.04-3.38-2.01-5.79c-0.96-2.41-0.96-2.41-0.96-2.41s-1.45-3.86-3.86-4.66C411.6,412.69,411.6,414.29,411.6,414.29z"
				/>
			<path class="st10" d="M498.51,619.3c0,0,11.18-7.34,13.95-10.85c2.78-3.5,11.25-20.33,13.49-23.79
				c2.24-3.46,18.92-10.06,18.92-10.06s-13.86,8.43-16.43,11.62c-2.58,3.19-14.52,27.3-17.79,30.37
				c-3.26,3.07-11.83,5.37-11.83,5.37L498.51,619.3"/>
		</g>
		<g>
			<g>
				<path class="st10" d="M257.75,711.3l-48.73,7.13c-3.61,0.53-5.36-0.94-5.26-4.43l1.74-55.38c0.1-3.48,1.96-5.49,5.57-6.01
					l48.38-7.08l1.05-33.27l-60.28,8.82c-16.49,2.41-24.99,11.7-25.49,27.82l-2.67,84.99c-0.48,15.44,7.51,21.95,24,19.54
					l60.63-8.87L257.75,711.3z"/>
			</g>
			<g>
				<path class="st10" d="M575.68,689.9l1.22-39.18c0.16-5.22-0.93-9.23-3.3-11.99c-2.37-2.78-6.25-4.35-11.63-4.72
					c10.17-3.23,15.43-10.82,15.81-22.78l0.66-20.89c0.52-16.49-7.52-23.52-24.13-21.09l-73.82,10.79l-4.15,132.35l30.91-4.51
					l2.88-84.6l0.08-0.01l0.5-15.39l31.4-4.6c3.61-0.53,5.36,0.94,5.26,4.43l-0.29,9.23c-0.12,3.49-1.98,5.49-5.59,6.03l-18.97,2.78
					l-0.95,28.04l19.04-2.79c3.61-0.52,5.36,0.96,5.26,4.44l-1.27,40.05c-0.04,1.63-0.19,6.86-0.19,6.86l30.99-4.43L575.68,689.9z"
					/>
			</g>
			<g>
				<path class="st10" d="M661.6,652.18l-49.63,7.26l3.11-99.1l-31.22,4.57l-4.15,132.35l80.85-11.83L661.6,652.18z"/>
			</g>
			<g>
				<path class="st10" d="M741.18,541.87l-33.21,4.86l-21.89,44.97l-18.36-39.09l-35.91,5.24l35.73,68.97l-1.81,57.83l32.32-4.73
					l1.81-57.82L741.18,541.87z"/>
			</g>
			<g>
				<polygon class="st10" points="293.18,739.02 294.78,688.04 332.85,682.47 331.25,733.55 362.3,729.08 366.44,597.03 
					335.4,601.49 333.81,652.24 295.72,657.81 297.31,606.97 266.1,611.46 261.95,743.51 				"/>
			</g>
			<g>
				<path class="st10" d="M723.8,643.91l29.47-4.12l0.67-17.61l-29.45,4.1l0.44-11.82l34.12-4.76l0.78-20.59l-40.39,5.65
					l-14.4,26.67l-2.25,58.41l54.07-7.56l0.79-20.9l-34.33,4.79L723.8,643.91z"/>
			</g>
			<g>
				<path class="st10" d="M807.45,582.5l-1.24,32.08l-23.9,3.33l1.23-32.07l-19.6,2.74l-3.2,83.2l19.6-2.74l1.25-32.18l23.9-3.34
					l-1.23,32.18l19.49-2.71l3.2-83.2L807.45,582.5z"/>
			</g>
			<g>
				<g>
					<path class="st10" d="M812.44,555.02L812.44,555.02l-23.7,3.3l0-0.03l-29.24,4.09l27.83-54.04l-96.16,14.06l-4.6,0.67
						l-98.74,14.42l0.03,0.05l-31.03,4.54l0,0.05c-0.49,0.06-0.97,0.11-1.46,0.18l-101.9,14.89l0,0.07
						c-0.66,0.08-1.31,0.15-1.98,0.25l-53.46,7.82c-2.49,0.36-4.91,0.84-7.26,1.4l-101.51,14.6l0-0.07l-27.79,4.06l-22.39,3.22
						l0,0.05l-37.99,5.56c-19.87,2.91-32.1,12.31-38.85,19.69c-6.68,7.3-14.77,20.01-15.36,39.11l-2.67,84.99
						c-0.95,30.33,19.01,46.97,50.84,42.39l88.71-12.97l0.01-0.23l55.28-7.95l0,0.07l27.9-4.08l22.41-3.22l0-0.06l22.23-3.25l0,0.01
						l87-12.73l0-0.02l35.65-5.2l0.01-0.15l16.76-2.4l0,0.06l18.95-2.77l32.39-4.63l0-0.11l71.58-10.47l-0.02,0.42l57.93-8.1l0,0.02
						l75.35-10.53l43.41-6.03l5.28-137.09L812.44,555.02z"/>
				</g>
			</g>
			<g>
				<path class="st10" d="M474.95,603.93c0.48-15.44-7.69-21.94-24.53-19.48l-53.26,7.79c-16.84,2.46-25.51,11.42-25.99,26.85
					l-3.42,109.2l31.05-4.55l1.59-50.82l-0.11,0.02l1.19-34.91l0.02,0l0.29-9.02c0.1-3.47,1.96-5.48,5.57-6.01l30.69-4.49
					c3.61-0.52,5.36,0.96,5.25,4.44l-0.27,8.69c-0.07,2.12-1.9,4.1-4.1,4.42l-25.09,3.66l-0.95,27.88l23.8-3.48
					c2.95-0.43,5.27,1.53,5.18,4.38l-1.55,49.19l31.23-4.57L474.95,603.93z"/>
			</g>
			<path class="st4" d="M257.75,711.3l-48.73,7.13c-3.61,0.53-5.36-0.94-5.26-4.43l1.74-55.38c0.1-3.48,1.96-5.49,5.57-6.01
				l48.38-7.08l1.05-33.27l-60.28,8.82c-16.49,2.41-24.99,11.7-25.49,27.82l-2.67,84.99c-0.48,15.44,7.51,21.95,24,19.54l60.63-8.87
				L257.75,711.3z"/>
			<path class="st4" d="M575.68,689.9l1.22-39.18c0.16-5.22-0.93-9.23-3.3-11.99c-2.37-2.78-6.25-4.35-11.63-4.72
				c10.17-3.23,15.43-10.82,15.81-22.78l0.66-20.89c0.52-16.49-7.52-23.52-24.13-21.09l-73.82,10.79l-4.15,132.35l30.91-4.51
				l2.88-84.6l0.08-0.01l0.5-15.39l31.4-4.6c3.61-0.53,5.36,0.94,5.26,4.43l-0.29,9.23c-0.12,3.49-1.98,5.49-5.59,6.03l-18.97,2.78
				l-0.95,28.04l19.04-2.79c3.61-0.52,5.36,0.96,5.26,4.44l-1.27,40.05c-0.04,1.63-0.19,6.86-0.19,6.86l30.99-4.43L575.68,689.9z"/>
			<path class="st4" d="M661.6,652.18l-49.63,7.26l3.11-99.1l-31.22,4.57l-4.15,132.35l80.85-11.83L661.6,652.18z"/>
			<path class="st4" d="M741.18,541.87l-33.21,4.86l-21.89,44.97l-18.36-39.09l-35.91,5.24l35.73,68.97l-1.81,57.83l32.32-4.73
				l1.81-57.82L741.18,541.87z"/>
			<polygon class="st4" points="293.18,739.02 294.78,688.04 332.85,682.47 331.25,733.55 362.3,729.08 366.44,597.03 335.4,601.49 
				333.81,652.24 295.72,657.81 297.31,606.97 266.1,611.46 261.95,743.51 			"/>
			<path class="st4" d="M723.8,643.91l29.47-4.12l0.67-17.61l-29.45,4.1l0.44-11.82l34.12-4.76l0.78-20.59l-40.39,5.65l-14.4,26.67
				l-2.25,58.41l54.07-7.56l0.79-20.9l-34.33,4.79L723.8,643.91z"/>
			<path class="st4" d="M807.45,582.5l-1.24,32.08l-23.9,3.33l1.23-32.07l-19.6,2.74l-3.2,83.2l19.6-2.74l1.25-32.18l23.9-3.34
				l-1.23,32.18l19.49-2.71l3.2-83.2L807.45,582.5z"/>
			<path class="st4" d="M474.95,603.93c0.48-15.44-7.69-21.94-24.53-19.48l-53.26,7.79c-16.84,2.46-25.51,11.42-25.99,26.85
				l-3.42,109.2l31.05-4.55l1.59-50.82l-0.11,0.02l1.19-34.91l0.02,0l0.29-9.02c0.1-3.47,1.96-5.48,5.57-6.01l30.69-4.49
				c3.61-0.52,5.36,0.96,5.25,4.44l-0.27,8.69c-0.07,2.12-1.9,4.1-4.1,4.42l-25.09,3.66l-0.95,27.88l23.8-3.48
				c2.95-0.43,5.27,1.53,5.18,4.38l-1.55,49.19l31.23-4.57L474.95,603.93z"/>
		</g>
	</g>
</g>
<g id="Capa_13">
	<path class="st10" d="M172.05,685c0,0,11.54-4.47,12.48-5.65c0.94-1.18,5.18-6.08,9.41-4.22s12,3.27,14.35,2.57l-1.65,7.29
		c0,0-7.22-6.35-9.73-6.59c-2.51-0.24-4.64-1.88-6.75,0.24c-2.11,2.12-4.7,6.82-8.23,6.35c-3.53-0.47-5.79-0.44-8.43,2.84
		C170.88,691.12,172.05,685,172.05,685z"/>
	<path class="st10" d="M220.53,670.27"/>
	<path class="st10" d="M540.55,611.05c0,0,1.41,5.65,2.8,6.76c1.39,1.1,2.18,1.14,3.02,2.25c0.84,1.12,1.11,3.35,2.91,4.1
		c1.79,0.75,5.7,0.65,6.55,0.57c0.85-0.07,1.53,3.91,1.53,3.91s2,1.81,2.94,1.81c0.94,0,1.19,2.6,2.07,2.44
		c0.88-0.17,3.9,0.3,8.1-2.71c4.21-3.02,3.79,0.69,3.79,0.69l-9.38,3.56c0,0-1.64-0.47-2.28-0.37c-0.64,0.1-3.25-1.14-3.02-2
		c0.23-0.87-0.72-1.35-1.67-1.75s-1.79-1.96-1.7-2.3c0.09-0.34,0.19-3.1-1.02-2.87c-1.21,0.23-3.22,0.43-4.13,0.61
		c-0.91,0.17-4.11-0.13-4.45-1.07s-0.31-2.86-1.57-3.72c-1.26-0.85-2.4-1.84-4.03-1.35c-1.63,0.49-2.83,1.93-4,2.52"/>
	<path class="st10" d="M816.22,581.27c0,0,1.84,2.17,1.75,3.4s-1.58,2.82,0,3.97c1.59,1.15,3,2.21,3.61,3.35
		c0.62,1.15,1.15-2.5,1.5-2.88c0.35-0.38,1.24-2.33,1.68-2.37c0.44-0.04,0.97,2.16,0.62,2.87c-0.35,0.71-1.24,2.47-1.41,2.6
		s-0.09,1.28,0.18,1.63c0.26,0.35,0.79,0.79,0.88,1.41c0.09,0.62,0.18,6,0,6.44s-0.79,2.03-0.62,2.38c0.18,0.35,1.41,4.42,1.38,5.2
		c-0.03,0.79,2.5-1.41,2.5-1.41l4.06-23.47l-2.47-10.15L816.22,581.27z"/>
	<path class="st10" d="M259.76,693.8c0,0,5.21-4.45,7.22-3.73c2.01,0.72,7.39-0.62,7.93-2.01c0.54-1.39,0.47-5.42,1.87-5.56
		c1.4-0.14,1.92-0.29,3.45,0.19s4.63-0.71,5.17-0.6c0.53,0.11,2.43-2.53,2.7-3.37c0.27-0.83,2.08-4.21,3.19-4.35
		c1.1-0.14,3.37-0.26,5.64-0.66c2.26-0.4,2.74-0.16,4.22,0.71c0,0-3.11-2.07-4.01-2.04s-2.53,0.05-3.92,0.46s-3.22-0.35-3.65,0.81
		s-0.67,2.84-1.8,3.94s-6.12,3.73-7.24,3.59s-2.89-0.72-4.45,0.64c-1.56,1.36-0.82,4.34-2.03,4.99c-1.2,0.65-4.09-0.09-5.09-0.45
		c-1-0.36-1.73-1.27-2.11-2.29c-0.38-1.02-1.23-1.18-0.47-2.59s-3.07-0.95-3.07-0.95L259.76,693.8z"/>
	<path class="st10" d="M414.99,654.89c0,0,1.7-6.83,4.88-7.57s9.26-2.95,9.84-1.48s0.72,2.95,1.3,3.32c0.58,0.37,2.46,0.18,2.9,0.18
		s0.58,0.99,0-0.98s0.38-5.47,0.38-5.47s1.64-0.75,2.66-1.02c1.01-0.27,2.61-1.01,2.61-2.3s0-3.53,0-3.53l1.74-2.55l-33.58,1.29
		l3.76,19L414.99,654.89z"/>
	<path class="st10" d="M328.7,625.12c0,0,1.28-5.65,3.16-5.89s3.88-2,4.24-2.82c0.35-0.82,1.06-7.06,1.88-8.47
		c0.82-1.41,7.06-7.06,7.65-7.18c0.59-0.12,4.54-2.25,6.11-2.48c1.57-0.23-8.93,0-8.93,0s-4.47,2.13-4.24,3.54
		c0.24,1.41-0.82,3.76-1.41,4.24c-0.59,0.47-2.12,1.18-2.35,1.53c-0.24,0.35-1.29,2.12-1.29,3.29c0,1.18-0.24,5.06-0.94,6.12
		c-0.71,1.06-1.87,0.95-2.82,3.06C328.79,622.17,328.77,622.89,328.7,625.12z"/>
	<path class="st10" d="M799.56,646.81c0,0,5.67,3.22,4.58,5.85s0.09,5.62,0.14,6.5c0.03,0.55,2.39,0.46,4.22,1.94
		c1.11,0.89,1.76,3.48,2.35,3.93c0.77,0.58,5.11,0.36,6.06,1.01c1.02,0.7-1.35,2.26-0.59,3.18c1.48,1.77,2.81,5.29,2.81,5.29v-13.85
		c0,0-2.37,0.75-4.31-0.26c-1.07-0.56-1.43-2.95-2.56-3.26c-3.18-0.88-5.29,0.44-5.29-2.03c0-1.17,3.41-3.09,3.44-4.32
		c0.03-1.38-3.32-2.04-3.26-2.56c0.11-0.98-0.71-2.65-1.59-2.82C804.68,645.22,799.56,646.81,799.56,646.81z"/>
</g>
</svg>
