<?xml version="1.0" encoding="utf-8"?>
<!-- Generator: Adobe Illustrator 23.0.0, SVG Export Plug-In . SVG Version: 6.00 Build 0)  -->
<svg version="1.1" xmlns="http://www.w3.org/2000/svg" xmlns:xlink="http://www.w3.org/1999/xlink" x="0px" y="0px"
	 viewBox="0 0 1000 1000" style="enable-background:new 0 0 1000 1000;" xml:space="preserve">
<style type="text/css">
	.st0{fill:#FFFFFF;}
	.st1{display:none;fill:#009245;}
	.st2{fill:#009245;}
	.st3{display:none;fill:#FFFFFF;}
</style>
<g id="Layer_9">
	<g>
		<rect transform="matrix(-1 -1.224647e-16 1.224647e-16 -1 1000 1000)" class="st0" width="1000" height="1000"/>
		<rect class="st1" width="358.31" height="1000"/>
		<g>
			<path class="st2" d="M358.31,1000V730.75H132.87C59.61,730.75,0,671.15,0,597.9V1000H358.31z"/>
			<path class="st2" d="M0,0v597.9c0-73.26,59.61-132.84,132.87-132.84h225.44V0H0z"/>
		</g>
	</g>
	<g id="Layer_4">
	</g>
</g>
<g id="Layer_20">
	<g id="Layer_21">
		<g>
			<g>
				<path class="st1" d="M867.15,465.1h-0.95c0.05,0.17,0.1,0.32,0.16,0.49c2.34,7.43,4.41,14.77,6.18,21.82l1.22,4.9
					c55.81,2.86,100.32,49.15,100.32,105.65c0,58.34-47.46,105.79-105.8,105.79c-0.98,0-1.96-0.02-2.95-0.05H358.31V492.14h40.52
					v0.01h336.83c-2.62-2.55-5.27-5.17-8.1-8c-5.67-5.73-11.63-11.93-18.36-19.1H132.87C59.61,465.05,0,524.64,0,597.9
					s59.61,132.85,132.87,132.85h730.85c0.93,0.03,2.03,0.05,3.43,0.05c73.26,0,132.85-59.6,132.85-132.85
					S940.41,465.1,867.15,465.1z M85.2,617.43c2.7,6.1,6.4,11.49,11.11,16.13c4.71,4.66,10.21,8.31,16.49,10.95
					c6.27,2.64,12.98,3.97,20.15,3.97c6.78,0,13.18-1.26,19.21-3.78c6.02-2.51,11.43-5.84,16.2-10v-14.53h-30.96v-24.91h59.08v50.39
					c-4.28,5.29-8.94,9.84-13.97,13.69c-5.03,3.84-10.28,7.01-15.76,9.52c-5.47,2.53-11.07,4.38-16.79,5.57
					c-5.73,1.2-11.43,1.79-17.09,1.79c-11.2,0-21.7-2.01-31.51-6.04c-9.81-4.02-18.38-9.55-25.68-16.6
					c-7.3-7.05-13.09-15.35-17.36-24.92c-4.27-9.55-6.41-19.88-6.41-30.95c0-10.82,2.1-20.98,6.32-30.48
					c4.21-9.5,10-17.78,17.36-24.82c7.36-7.04,15.96-12.61,25.77-16.7c9.81-4.1,20.31-6.14,31.51-6.14c12.96,0,24.76,2.65,35.4,7.93
					c10.62,5.28,19.66,12.33,27.08,21.13l-19.78,20.2c-5.66-7.67-12-13.18-19.04-16.52c-7.04-3.33-14.89-5-23.56-5
					c-7.15,0-13.88,1.32-20.16,3.97c-6.28,2.64-11.78,6.26-16.49,10.85c-4.71,4.59-8.42,9.94-11.12,16.04
					c-2.69,6.1-4.04,12.61-4.04,19.53C81.15,604.76,82.5,611.33,85.2,617.43z M326.37,544.67h-70.96v37.44h70.02v24.51h-70.02v43.13
					h70.96v26.47h-99.66V519.57h99.66V544.67z"/>
				<path class="st1" d="M358.31,703.69L358.31,703.69l0-211.55h0v-27.09H132.87C59.61,465.05,0,524.64,0,597.9
					s59.61,132.85,132.87,132.85h225.44V703.69z M196.48,645.64c-4.28,5.29-8.94,9.84-13.97,13.69c-5.03,3.84-10.28,7.01-15.76,9.52
					c-5.47,2.53-11.07,4.38-16.79,5.57c-5.73,1.2-11.43,1.79-17.09,1.79c-11.2,0-21.7-2.01-31.51-6.04
					c-9.81-4.02-18.38-9.55-25.68-16.6c-7.3-7.05-13.09-15.35-17.36-24.92c-4.27-9.55-6.41-19.88-6.41-30.95
					c0-10.82,2.1-20.98,6.32-30.48c4.21-9.5,10-17.78,17.36-24.82c7.36-7.04,15.96-12.61,25.77-16.7c9.81-4.1,20.31-6.14,31.51-6.14
					c12.96,0,24.76,2.65,35.4,7.93c10.62,5.28,19.66,12.33,27.08,21.13l-19.78,20.2c-5.66-7.67-12-13.18-19.04-16.52
					c-7.04-3.33-14.89-5-23.56-5c-7.15,0-13.88,1.32-20.16,3.97c-6.28,2.64-11.78,6.26-16.49,10.85
					c-4.71,4.59-8.42,9.94-11.12,16.04c-2.69,6.1-4.04,12.61-4.04,19.53c0,7.05,1.35,13.62,4.04,19.72
					c2.7,6.1,6.4,11.49,11.11,16.13c4.71,4.66,10.21,8.31,16.49,10.95c6.27,2.64,12.98,3.97,20.15,3.97
					c6.78,0,13.18-1.26,19.21-3.78c6.02-2.51,11.43-5.84,16.2-10v-14.53h-30.96v-24.91h59.08V645.64z M326.37,544.67h-70.96v37.44
					h70.02v24.51h-70.02v43.13h70.96v26.47h-99.66V519.57h99.66V544.67z"/>
				<g>
					<path class="st2" d="M398.84,492.14v0.01h336.83c-2.62-2.55-5.27-5.17-8.1-8c-5.67-5.73-11.63-11.93-18.36-19.1h-350.9v27.09
						H398.84z"/>
					<path class="st2" d="M867.15,465.1h-0.95c0.05,0.17,0.1,0.32,0.16,0.49c2.34,7.43,4.41,14.77,6.18,21.82l1.22,4.9
						c55.81,2.86,100.32,49.15,100.32,105.65c0,58.34-47.46,105.79-105.8,105.79c-0.98,0-1.96-0.02-2.95-0.05h-507v27.06h505.4
						c0.93,0.03,2.03,0.05,3.43,0.05c73.26,0,132.85-59.6,132.85-132.85S940.41,465.1,867.15,465.1z"/>
				</g>
				<polygon class="st2" points="255.41,544.67 255.41,582.12 325.43,582.12 325.43,606.63 255.41,606.63 255.41,649.76 
					326.37,649.76 326.37,676.23 226.72,676.23 226.72,519.57 326.37,519.57 326.37,544.67 				"/>
				<path class="st2" d="M196.48,595.26v50.39c-4.28,5.29-8.94,9.84-13.97,13.69c-5.03,3.84-10.28,7.01-15.76,9.52
					c-5.47,2.53-11.07,4.38-16.79,5.57c-5.73,1.2-11.43,1.79-17.09,1.79c-11.2,0-21.7-2.01-31.51-6.04
					c-9.81-4.02-18.38-9.55-25.68-16.6c-7.3-7.05-13.09-15.35-17.36-24.92c-4.27-9.55-6.41-19.88-6.41-30.95
					c0-10.82,2.1-20.98,6.32-30.48c4.21-9.5,10-17.78,17.36-24.82c7.36-7.04,15.96-12.61,25.77-16.7c9.81-4.1,20.31-6.14,31.51-6.14
					c12.96,0,24.76,2.65,35.4,7.93c10.62,5.28,19.66,12.33,27.08,21.13l-19.78,20.2c-5.66-7.67-12-13.18-19.04-16.52
					c-7.04-3.33-14.89-5-23.56-5c-7.15,0-13.88,1.32-20.16,3.97c-6.28,2.64-11.78,6.26-16.49,10.85
					c-4.71,4.59-8.42,9.94-11.12,16.04c-2.69,6.1-4.04,12.61-4.04,19.53c0,7.05,1.35,13.62,4.04,19.72
					c2.7,6.1,6.4,11.49,11.11,16.13c4.71,4.66,10.21,8.31,16.49,10.95c6.27,2.64,12.98,3.97,20.15,3.97
					c6.78,0,13.18-1.26,19.21-3.78c6.02-2.51,11.43-5.84,16.2-10v-14.53h-30.96v-24.91H196.48z"/>
				<path class="st2" d="M419.4,676.18h-29.26V519.52h29.26V676.18z"/>
				<path class="st2" d="M610.44,676.19h-28.69V571.61l-47.56,83.23l-45.68-84.01v105.36h-28.69V519.52h33.03l41.9,77.75
					l43.79-77.75h31.9V676.19z"/>
				<path class="st2" d="M761.25,546.58h-41.71v129.61H689.9V546.58h-41.71v-27.06h113.06V546.58z"/>
				<path class="st2" d="M928.66,646.17c-7.55,9.19-16.7,16.48-27.46,21.89c-10.76,5.41-22.62,8.12-35.58,8.12
					c-11.2,0-21.71-2.05-31.52-6.13c-9.81-4.09-18.35-9.65-25.62-16.7c-7.26-7.04-12.99-15.32-17.18-24.82
					c-4.19-9.5-6.28-19.72-6.28-30.67c0-10.95,2.09-21.17,6.28-30.67c4.19-9.5,9.92-17.8,17.18-24.91
					c7.26-7.11,15.8-12.67,25.62-16.7c9.81-4.03,20.32-6.04,31.52-6.04c12.96,0,24.82,2.71,35.58,8.12
					c10.76,5.41,19.72,12.46,26.9,21.14l-20.2,20.76c-4.66-6.67-10.66-12.05-18.03-16.14c-7.36-4.09-15.45-6.13-24.25-6.13
					c-7.05,0-13.68,1.35-19.91,4.06c-6.23,2.71-11.67,6.36-16.33,10.95c-4.66,4.59-8.34,9.94-11.04,16.04
					c-2.71,6.1-4.06,12.62-4.06,19.53c0,6.79,1.35,13.24,4.06,19.34c2.7,6.1,6.38,11.45,11.04,16.04
					c4.65,4.59,10.1,8.24,16.33,10.95c6.23,2.71,12.87,4.06,19.91,4.06c9.31,0,17.55-2.11,24.73-6.32
					c7.17-4.21,13.15-9.78,17.93-16.7L928.66,646.17z"/>
				<path class="st2" d="M846.28,493.97c-0.06,0-0.11,0.01-0.16,0.03c-1.24,0.26-2.48,0.53-3.71,0.83c-0.01,0-0.03,0-0.05,0.01
					c-6.37,1.33-12.56,3.24-18.54,5.68c-7.84,3.21-15.13,7.23-21.82,12c-8.41-5.9-16.33-12.01-24.07-18.53
					c-7.52-6.31-14.88-13.02-22.42-20.3c-2.89-2.8-5.81-5.68-8.77-8.66c-8.14-8.22-16.6-17.16-25.74-27.06
					c-8.77-9.51-18.17-19.91-28.51-31.41c40.88-2.59,73.66-34.76,76.78-75.95c0.01-0.2,0.02-0.41,0.03-0.6
					c15.49,23.11,39.57,62.38,58.28,107.96c3.62,8.81,7.04,17.85,10.15,27.06c0.97,2.88,1.91,5.76,2.82,8.66
					C842.65,480.4,844.57,487.16,846.28,493.97z"/>
				<path class="st2" d="M469.95,353.88c0-28.09-10.5-54.92-29.57-75.56c-1.44-1.56-2.93-3.08-4.45-4.53
					c46.95-4.78,127.28-5.75,184.02-1.48c-2.06,2.91-3.94,5.94-5.59,9.09c-6.19,11.75-9.47,25.01-9.47,38.36
					c0,17.73,5.51,34.54,16,48.77c-53.42,28.81-106.59,48.17-189.34,69.46C456,416.78,469.95,386.35,469.95,353.88z"/>
				<path class="st2" d="M285.1,437.99H132.87c-0.38,0-0.78,0-1.16,0.01h-0.35c-0.27,0-0.54,0-0.81,0.01l0.01-0.01
					c34.6-34.84,74.33-67.44,116.56-93.91c-0.29,3.24-0.44,6.51-0.44,9.79C246.68,386.36,260.63,416.79,285.1,437.99z"/>
				<path class="st2" d="M442.88,353.88c0-36.15-22.79-66.98-54.81-79c-15.33-5.82-31.77-6.94-47.32-3.68
					c-20.16,4.21-38.81,15.75-51.61,33.88c-11.97,16.95-16.79,36.8-15.1,55.99c1.99,23.56,13.69,44.37,31.1,58.43
					c7.33,5.92,15.67,10.64,24.71,13.87c0.26,0.09,0.53,0.18,0.79,0.27c0.69,0.24,1.38,0.48,2.08,0.7c0.7,0.22,1.4,0.43,2.11,0.63
					c0.27,0.08,0.53,0.16,0.79,0.23c9.25,2.58,18.79,3.53,28.19,2.92c22.32-1.44,43.88-11.7,59.1-29.79
					C435.37,393.63,442.88,374.62,442.88,353.88z"/>
				<path class="st2" d="M742.43,324.45c0,1.42-0.06,2.83-0.16,4.23c-2.12,27.95-25.04,50.1-53.32,50.99
					c-0.59,0.02-1.17,0.03-1.77,0.03c-15.52,0-29.54-6.39-39.58-16.7c-1.49-1.53-2.89-3.15-4.19-4.84
					c-7.19-9.34-11.47-21.03-11.47-33.71c0-9.29,2.29-18.04,6.35-25.73c4.14-7.85,10.11-14.58,17.34-19.62
					c8.94-6.25,19.82-9.9,31.55-9.9C717.7,269.2,742.43,293.94,742.43,324.45z"/>
				<path class="st2" d="M358.31,269.4V438.3c-7.6,0-15.23-1.02-22.68-3.1c-0.26-0.07-0.53-0.16-0.79-0.24
					c-0.71-0.2-1.41-0.41-2.11-0.62c-0.7-0.23-1.39-0.47-2.08-0.71c-0.26-0.08-0.53-0.17-0.79-0.26
					c-9.04-3.23-17.38-7.95-24.71-13.87c-17.4-14.05-29.1-34.87-31.09-58.43c-1.7-19.19,3.13-39.05,15.1-55.99
					c12.8-18.13,31.45-29.67,51.61-33.88C346.52,269.99,352.41,269.39,358.31,269.4z"/>
			</g>
		</g>
		<g>
			<g>
				<path class="st1" d="M867.15,465.1h-0.95c0.05,0.17,0.1,0.32,0.16,0.49c2.34,7.43,4.41,14.77,6.18,21.82l1.22,4.9
					c55.81,2.86,100.32,49.15,100.32,105.65c0,58.34-47.46,105.79-105.8,105.79c-0.98,0-1.96-0.02-2.95-0.05H358.31V492.14h40.52
					v0.01h336.83c-2.62-2.55-5.27-5.17-8.1-8c-5.67-5.73-11.63-11.93-18.36-19.1H132.87C59.61,465.05,0,524.64,0,597.9
					s59.61,132.85,132.87,132.85h730.85c0.93,0.03,2.03,0.05,3.43,0.05c73.26,0,132.85-59.6,132.85-132.85
					S940.41,465.1,867.15,465.1z M85.2,617.43c2.7,6.1,6.4,11.49,11.11,16.13c4.71,4.66,10.21,8.31,16.49,10.95
					c6.27,2.64,12.98,3.97,20.15,3.97c6.78,0,13.18-1.26,19.21-3.78c6.02-2.51,11.43-5.84,16.2-10v-14.53h-30.96v-24.91h59.08v50.39
					c-4.28,5.29-8.94,9.84-13.97,13.69c-5.03,3.84-10.28,7.01-15.76,9.52c-5.47,2.53-11.07,4.38-16.79,5.57
					c-5.73,1.2-11.43,1.79-17.09,1.79c-11.2,0-21.7-2.01-31.51-6.04c-9.81-4.02-18.38-9.55-25.68-16.6
					c-7.3-7.05-13.09-15.35-17.36-24.92c-4.27-9.55-6.41-19.88-6.41-30.95c0-10.82,2.1-20.98,6.32-30.48
					c4.21-9.5,10-17.78,17.36-24.82c7.36-7.04,15.96-12.61,25.77-16.7c9.81-4.1,20.31-6.14,31.51-6.14c12.96,0,24.76,2.65,35.4,7.93
					c10.62,5.28,19.66,12.33,27.08,21.13l-19.78,20.2c-5.66-7.67-12-13.18-19.04-16.52c-7.04-3.33-14.89-5-23.56-5
					c-7.15,0-13.88,1.32-20.16,3.97c-6.28,2.64-11.78,6.26-16.49,10.85c-4.71,4.59-8.42,9.94-11.12,16.04
					c-2.69,6.1-4.04,12.61-4.04,19.53C81.15,604.76,82.5,611.33,85.2,617.43z M326.37,544.67h-70.96v37.44h70.02v24.51h-70.02v43.13
					h70.96v26.47h-99.66V519.57h99.66V544.67z"/>
				<path class="st3" d="M358.31,703.69L358.31,703.69l0-211.55h0v-27.09H132.87C59.61,465.05,0,524.64,0,597.9
					s59.61,132.85,132.87,132.85h225.44V703.69z M196.48,645.64c-4.28,5.29-8.94,9.84-13.97,13.69c-5.03,3.84-10.28,7.01-15.76,9.52
					c-5.47,2.53-11.07,4.38-16.79,5.57c-5.73,1.2-11.43,1.79-17.09,1.79c-11.2,0-21.7-2.01-31.51-6.04
					c-9.81-4.02-18.38-9.55-25.68-16.6c-7.3-7.05-13.09-15.35-17.36-24.92c-4.27-9.55-6.41-19.88-6.41-30.95
					c0-10.82,2.1-20.98,6.32-30.48c4.21-9.5,10-17.78,17.36-24.82c7.36-7.04,15.96-12.61,25.77-16.7c9.81-4.1,20.31-6.14,31.51-6.14
					c12.96,0,24.76,2.65,35.4,7.93c10.62,5.28,19.66,12.33,27.08,21.13l-19.78,20.2c-5.66-7.67-12-13.18-19.04-16.52
					c-7.04-3.33-14.89-5-23.56-5c-7.15,0-13.88,1.32-20.16,3.97c-6.28,2.64-11.78,6.26-16.49,10.85
					c-4.71,4.59-8.42,9.94-11.12,16.04c-2.69,6.1-4.04,12.61-4.04,19.53c0,7.05,1.35,13.62,4.04,19.72
					c2.7,6.1,6.4,11.49,11.11,16.13c4.71,4.66,10.21,8.31,16.49,10.95c6.27,2.64,12.98,3.97,20.15,3.97
					c6.78,0,13.18-1.26,19.21-3.78c6.02-2.51,11.43-5.84,16.2-10v-14.53h-30.96v-24.91h59.08V645.64z M326.37,544.67h-70.96v37.44
					h70.02v24.51h-70.02v43.13h70.96v26.47h-99.66V519.57h99.66V544.67z"/>
				<g>
					<path class="st2" d="M398.84,492.14v0.01h336.83c-2.62-2.55-5.27-5.17-8.1-8c-5.67-5.73-11.63-11.93-18.36-19.1h-350.9v27.09
						H398.84z"/>
					<path class="st2" d="M867.15,465.1h-0.95c0.05,0.17,0.1,0.32,0.16,0.49c2.34,7.43,4.41,14.77,6.18,21.82l1.22,4.9
						c55.81,2.86,100.32,49.15,100.32,105.65c0,58.34-47.46,105.79-105.8,105.79c-0.98,0-1.96-0.02-2.95-0.05h-507v27.06h505.4
						c0.93,0.03,2.03,0.05,3.43,0.05c73.26,0,132.85-59.6,132.85-132.85S940.41,465.1,867.15,465.1z"/>
				</g>
				<polygon class="st2" points="255.41,544.67 255.41,582.12 325.43,582.12 325.43,606.63 255.41,606.63 255.41,649.76 
					326.37,649.76 326.37,676.23 226.72,676.23 226.72,519.57 326.37,519.57 326.37,544.67 				"/>
				<path class="st2" d="M196.48,595.26v50.39c-4.28,5.29-8.94,9.84-13.97,13.69c-5.03,3.84-10.28,7.01-15.76,9.52
					c-5.47,2.53-11.07,4.38-16.79,5.57c-5.73,1.2-11.43,1.79-17.09,1.79c-11.2,0-21.7-2.01-31.51-6.04
					c-9.81-4.02-18.38-9.55-25.68-16.6c-7.3-7.05-13.09-15.35-17.36-24.92c-4.27-9.55-6.41-19.88-6.41-30.95
					c0-10.82,2.1-20.98,6.32-30.48c4.21-9.5,10-17.78,17.36-24.82c7.36-7.04,15.96-12.61,25.77-16.7c9.81-4.1,20.31-6.14,31.51-6.14
					c12.96,0,24.76,2.65,35.4,7.93c10.62,5.28,19.66,12.33,27.08,21.13l-19.78,20.2c-5.66-7.67-12-13.18-19.04-16.52
					c-7.04-3.33-14.89-5-23.56-5c-7.15,0-13.88,1.32-20.16,3.97c-6.28,2.64-11.78,6.26-16.49,10.85
					c-4.71,4.59-8.42,9.94-11.12,16.04c-2.69,6.1-4.04,12.61-4.04,19.53c0,7.05,1.35,13.62,4.04,19.72
					c2.7,6.1,6.4,11.49,11.11,16.13c4.71,4.66,10.21,8.31,16.49,10.95c6.27,2.64,12.98,3.97,20.15,3.97
					c6.78,0,13.18-1.26,19.21-3.78c6.02-2.51,11.43-5.84,16.2-10v-14.53h-30.96v-24.91H196.48z"/>
				<path class="st2" d="M419.4,676.18h-29.26V519.52h29.26V676.18z"/>
				<path class="st2" d="M610.44,676.19h-28.69V571.61l-47.56,83.23l-45.68-84.01v105.36h-28.69V519.52h33.03l41.9,77.75
					l43.79-77.75h31.9V676.19z"/>
				<path class="st2" d="M761.25,546.58h-41.71v129.61H689.9V546.58h-41.71v-27.06h113.06V546.58z"/>
				<path class="st2" d="M928.66,646.17c-7.55,9.19-16.7,16.48-27.46,21.89c-10.76,5.41-22.62,8.12-35.58,8.12
					c-11.2,0-21.71-2.05-31.52-6.13c-9.81-4.09-18.35-9.65-25.62-16.7c-7.26-7.04-12.99-15.32-17.18-24.82
					c-4.19-9.5-6.28-19.72-6.28-30.67c0-10.95,2.09-21.17,6.28-30.67c4.19-9.5,9.92-17.8,17.18-24.91
					c7.26-7.11,15.8-12.67,25.62-16.7c9.81-4.03,20.32-6.04,31.52-6.04c12.96,0,24.82,2.71,35.58,8.12
					c10.76,5.41,19.72,12.46,26.9,21.14l-20.2,20.76c-4.66-6.67-10.66-12.05-18.03-16.14c-7.36-4.09-15.45-6.13-24.25-6.13
					c-7.05,0-13.68,1.35-19.91,4.06c-6.23,2.71-11.67,6.36-16.33,10.95c-4.66,4.59-8.34,9.94-11.04,16.04
					c-2.71,6.1-4.06,12.62-4.06,19.53c0,6.79,1.35,13.24,4.06,19.34c2.7,6.1,6.38,11.45,11.04,16.04
					c4.65,4.59,10.1,8.24,16.33,10.95c6.23,2.71,12.87,4.06,19.91,4.06c9.31,0,17.55-2.11,24.73-6.32
					c7.17-4.21,13.15-9.78,17.93-16.7L928.66,646.17z"/>
				<path class="st2" d="M846.28,493.97c-0.06,0-0.11,0.01-0.16,0.03c-1.24,0.26-2.48,0.53-3.71,0.83c-0.01,0-0.03,0-0.05,0.01
					c-6.37,1.33-12.56,3.24-18.54,5.68c-7.84,3.21-15.13,7.23-21.82,12c-8.41-5.9-16.33-12.01-24.07-18.53
					c-7.52-6.31-14.88-13.02-22.42-20.3c-2.89-2.8-5.81-5.68-8.77-8.66c-8.14-8.22-16.6-17.16-25.74-27.06
					c-8.77-9.51-18.17-19.91-28.51-31.41c40.88-2.59,73.66-34.76,76.78-75.95c0.01-0.2,0.02-0.41,0.03-0.6
					c15.49,23.11,39.57,62.38,58.28,107.96c3.62,8.81,7.04,17.85,10.15,27.06c0.97,2.88,1.91,5.76,2.82,8.66
					C842.65,480.4,844.57,487.16,846.28,493.97z"/>
				<path class="st2" d="M469.95,353.88c0-28.09-10.5-54.92-29.57-75.56c-1.44-1.56-2.93-3.08-4.45-4.53
					c46.95-4.78,127.28-5.75,184.02-1.48c-2.06,2.91-3.94,5.94-5.59,9.09c-6.19,11.75-9.47,25.01-9.47,38.36
					c0,17.73,5.51,34.54,16,48.77c-53.42,28.81-106.59,48.17-189.34,69.46C456,416.78,469.95,386.35,469.95,353.88z"/>
				<path class="st0" d="M285.1,437.99H132.87c-0.38,0-0.78,0-1.16,0.01h-0.35c-0.27,0-0.54,0-0.81,0.01l0.01-0.01
					c34.6-34.84,74.33-67.44,116.56-93.91c-0.29,3.24-0.44,6.51-0.44,9.79C246.68,386.36,260.63,416.79,285.1,437.99z"/>
				<path class="st2" d="M442.88,353.88c0-36.15-22.79-66.98-54.81-79c-15.33-5.82-31.77-6.94-47.32-3.68
					c-20.16,4.21-38.81,15.75-51.61,33.88c-11.97,16.95-16.79,36.8-15.1,55.99c1.99,23.56,13.69,44.37,31.1,58.43
					c7.33,5.92,15.67,10.64,24.71,13.87c0.26,0.09,0.53,0.18,0.79,0.27c0.69,0.24,1.38,0.48,2.08,0.7c0.7,0.22,1.4,0.43,2.11,0.63
					c0.27,0.08,0.53,0.16,0.79,0.23c9.25,2.58,18.79,3.53,28.19,2.92c22.32-1.44,43.88-11.7,59.1-29.79
					C435.37,393.63,442.88,374.62,442.88,353.88z"/>
				<path class="st2" d="M742.43,324.45c0,1.42-0.06,2.83-0.16,4.23c-2.12,27.95-25.04,50.1-53.32,50.99
					c-0.59,0.02-1.17,0.03-1.77,0.03c-15.52,0-29.54-6.39-39.58-16.7c-1.49-1.53-2.89-3.15-4.19-4.84
					c-7.19-9.34-11.47-21.03-11.47-33.71c0-9.29,2.29-18.04,6.35-25.73c4.14-7.85,10.11-14.58,17.34-19.62
					c8.94-6.25,19.82-9.9,31.55-9.9C717.7,269.2,742.43,293.94,742.43,324.45z"/>
				<path class="st0" d="M358.31,269.4V438.3c-7.6,0-15.23-1.02-22.68-3.1c-0.26-0.07-0.53-0.16-0.79-0.24
					c-0.71-0.2-1.41-0.41-2.11-0.62c-0.7-0.23-1.39-0.47-2.08-0.71c-0.26-0.08-0.53-0.17-0.79-0.26
					c-9.04-3.23-17.38-7.95-24.71-13.87c-17.4-14.05-29.1-34.87-31.09-58.43c-1.7-19.19,3.13-39.05,15.1-55.99
					c12.8-18.13,31.45-29.67,51.61-33.88C346.52,269.99,352.41,269.39,358.31,269.4z"/>
			</g>
		</g>
	</g>
</g>
</svg>
