<svg xmlns="http://www.w3.org/2000/svg" xmlns:xlink="http://www.w3.org/1999/xlink" viewBox="0 0 2000 2000"><defs><style>.cls-1{fill:#631313;}.cls-2,.cls-20{fill:#fff;}.cls-3{fill:#ffc200;}.cls-4{fill:url(#Degradado_sin_nombre_59);}.cls-5{fill:red;}.cls-6{fill:#ff6f0d;}.cls-7{fill:#ffc688;}.cls-8{fill:url(#Degradado_sin_nombre_59-2);}.cls-9{fill:#ffa780;}.cls-10{fill:url(#Degradado_sin_nombre_74);}.cls-11{fill:url(#Degradado_sin_nombre_61);}.cls-12{fill:#ff8f8f;}.cls-13{fill:#ad0000;}.cls-14{fill:#8c3900;}.cls-15{fill:#ffa364;}.cls-16{fill:#9b4810;}.cls-17{fill:#ffdc97;}.cls-18{fill:#aa6900;}.cls-19{fill:#ffd0bd;}.cls-20{opacity:0.5;}.cls-21{fill:#bf9367;}.cls-22{fill:#c68400;}.cls-23{fill:#ffc764;}.cls-24{fill:#ffe0c2;}</style><linearGradient id="Degradado_sin_nombre_59" x1="526.91" y1="819.8" x2="769.91" y2="819.8" gradientUnits="userSpaceOnUse"><stop offset="0" stop-color="#ffcd6a"/><stop offset="0.05" stop-color="#ffc75f"/><stop offset="0.23" stop-color="#ffb53d"/><stop offset="0.42" stop-color="#ffa722"/><stop offset="0.6" stop-color="#ff9d0f"/><stop offset="0.8" stop-color="#ff9704"/><stop offset="1" stop-color="#ff9500"/></linearGradient><linearGradient id="Degradado_sin_nombre_59-2" x1="1077.49" y1="792" x2="1247.91" y2="792" xlink:href="#Degradado_sin_nombre_59"/><linearGradient id="Degradado_sin_nombre_74" x1="972.71" y1="1006.19" x2="904.92" y2="888.77" gradientUnits="userSpaceOnUse"><stop offset="0" stop-color="#ffa415"/><stop offset="0.01" stop-color="#ffa014"/><stop offset="0.1" stop-color="#ff850b"/><stop offset="0.19" stop-color="#ff7205"/><stop offset="0.28" stop-color="#ff6701"/><stop offset="0.38" stop-color="#ff6300"/><stop offset="1" stop-color="#d96100" stop-opacity="0"/></linearGradient><linearGradient id="Degradado_sin_nombre_61" x1="821.26" y1="687.06" x2="986.61" y2="687.06" xlink:href="#Degradado_sin_nombre_59"/></defs><title>Rodo2</title><g id="Capa_10" data-name="Capa 10"><rect class="cls-1" width="2000" height="2000"/></g><g id="Capa_9" data-name="Capa 9"><path class="cls-2" d="M1279.62,1672.76c.36-1.46,27.88-117.12,16.65-213.84a691.82,691.82,0,0,1-55,99.7c-17.53,26.43-44.49,56.17-70.79,84.66-69.93,75.77-159.18,101.39-159.18,101.39s46-112.61,55.8-194.68a319.58,319.58,0,0,0-1.62-87.07,520.06,520.06,0,0,1-41.31,38.16c-41,34.09-92.32,64.12-150,94.07C657.91,1707.34,492,1665.74,492,1665.74s166-115.34,256.93-256.66a426.92,426.92,0,0,1-119.6,17.61h-1c-140.4-.69-250-90.64-250-90.64s97.64-6,186.81-49a175.3,175.3,0,0,0,58.5-44.8c-33.16-31.79-43.41-77.24-44.64-83.21l-.26-1.25-.19-1.26c-1.25-8.17-11.79-81.61,3.74-140.62a422.92,422.92,0,0,1,18.6-55.82l-1.14-.7c-18.91,25.52-32.25,69.17-36,85.16l-10.14,43.71-31.84-31.62c-3.51-3.49-85.89-86.91-71.55-213.11,4.1-36.12,20.55-74.26,46.3-107.4a248.6,248.6,0,0,1,30-32.26,253,253,0,0,1-28.22-56.77A226.55,226.55,0,0,1,486.18,557c2.47-35.69,13.28-71.36,32.13-106,40.93-75.28,95.88-129.65,163.35-161.61C737,263.19,786.44,259.28,811,259.28a163.86,163.86,0,0,1,17.69.8L842,261.65q11.21-6.91,22.65-13.09c46.52-25.1,76.83-43.69,182.73-48.67,0,0,.29-9.79-10.5-25.89,79,17.5,179.53,82.05,241.11,165.24-3.44-75.24-61.44-144.57-61.44-144.57,67.33,16,173.33,86.66,218.61,150.87,21.59,30.62,43.32,59,57.87,89.37,18.84,39.38,29.45,79.46,31.56,119.12,4.28,80.77-25.89,157.79-89.76,229.25a552.36,552.36,0,0,1,100,143.58,529.4,529.4,0,0,1,48,165.84c8.12,68.89,2.14,135.78-17.76,198.83l-25.31,80.16-22.61-81c0-.14-1-3.3-2.8-8.71,1.71,50.12-3.88,95.47-16.83,137.33-31,100.27-78.9,169.39-111,211.75-40.62,53.57-122.79,107-122.79,107Z" transform="translate(0)"/></g><g id="Capa_8" data-name="Capa 8"><path class="cls-3" d="M1048.58,1707.33c-.81.47,38.67-89.33,43.41-155.55,2.8-39.21,4.71-91.77-14.79-140.66-14.7,19.24-36.87,44-69.06,70.73-40.64,33.77-89.56,64-144.94,90.79C687.91,1657.5,553.91,1650,553.91,1650c1.76-1.27,212.36-159.4,237.5-283.22a403.19,403.19,0,0,1-162.2,34.91c-100.63.31-182.9-52-182.9-52,.26,0,72.94-9.69,130.58-40.57,36.1-19.34,63.68-42.68,81-72-41.85-24.17-53.88-80.19-54.47-83.07l-.13-.62-.1-.63c-.47-3-11.28-75.42,3.2-130.48,7.28-27.64,16.18-51.82,27-73.14A176.77,176.77,0,0,1,596.6,926.7c-38,29.4-57.22,112.23-57.22,112.23S461.91,962,475.05,846.38c3.55-31.2,17.92-64.92,41.2-94.87a212.3,212.3,0,0,1,44.46-43c-13.83-17.35-28.89-40.83-38.82-69.52a201.74,201.74,0,0,1-10.77-80.22c2.21-31.84,11.92-64.12,29.15-95.81C648.41,264,808.58,290.67,808.58,290.67s-37.67,18.83-51.17,72.83c35-38,84.49-74.26,119.13-92.94C920.22,247,966.46,232.43,1014,227.23l53.23-5.83L1037.51,266a366,366,0,0,0-29.1,55.23c-12.74,30.82-16.28,55.3-10,68,6-2.75,20.54-11.2,37.23-36.1,67.75-101,34.08-148.23,34.08-148.23S1249.91,295,1289.65,412.36c1.51-2.31,3.44-4.51,4.41-7.22,32.9-92.06-31.35-174.73-31.35-174.73s99.87,58.26,153.2,131c20.94,28.58,40.93,55.66,54.6,84.24,17.41,36.4,27.21,73.29,29.14,109.66,4.27,80.41-29.23,157.18-99.63,228.5A529.05,529.05,0,0,1,1512.33,937.7c42.57,88.4,69.65,217.31,28.93,346.3,0,0-20.68-74-72.64-134.4,7.48,23.63,10.08,37,14.52,66.84,9.78,65.61,10.06,132.37-9.48,195.53-57.75,186.7-169.75,266.7-169.75,266.7s47.34-194.67-3.74-301.66c-4.53,15.23-10.46,32.65-18.22,51.76a658.11,658.11,0,0,1-61.56,116C1191.19,1588.83,1126.58,1662,1048.58,1707.33Z" transform="translate(0)"/></g><g id="Capa_3" data-name="Capa 3"><polygon class="cls-4" points="644.53 708.59 701.05 755 737.52 825.1 745.38 849.05 761.41 874 769.91 906.5 767.41 931 731.91 931 653.41 919 591.46 885.83 536.91 925.5 526.91 880 540.41 789.5 601.41 734 644.53 708.59"/><path class="cls-5" d="M601.41,715.5,568.58,664l-17.67-63.67,23.67-108L653.91,377h38.34l-3.67,64.33s31.67,46,32,44.67,75.67-99.67,75.67-99.67l147-79v57.34l30,65,52.33-1.67,79.33-95.33s30.67-12.67,31-13.67,78.67,53.33,78.67,53.33l27.67,79,13.33,39,71-45.33,28.33-60.33,66.67,60.66,21,58.34v118l-20.67,82-66.11,87.54-118.89-75.88,15.34-14.66,75-9-53.34-44.34-115.33-22.66,39.67-43.34-83.67-.66-74,13.33L887.25,631l-108,77.59L760.91,735l9,23.67-3,55-28.66-3.06-46.67-59.94-46.67-47Z" transform="translate(0)"/><path class="cls-5" d="M774,890.55l7.93-17.89L799.08,869l22.17,22.5L848.41,915l26.84,4,36,19.33,22.66,19.17,13.17-39.33,30.5,29L999.74,993l4.51,22.17-4.51,33.16L975.25,1120l-21.5,24-45.34,61.83-84.33,33-45.17-41.33-10-13s-16,18.33-17,16.83-57.83,1.17-57.83,1.17l-21.33-35-35.67-93.83,27-120.5,11.66-25.64,60,8.14,36.74-1.19Z" transform="translate(0)"/><path class="cls-6" d="M1040.58,594l92.92-13.18,64.75.51-20,47.2,106.53,27.82,42.49,35.32-75,9,19.48,36.89,110.76,89L1475,946.1l33.46,149-94.49-61.5-40.5-6,49.5,154.49-18,238.49-31.5,45-37.5-153-48-53-36,120.46-87,162-39-117-57-97.5L875.51,1512.06s-124.49,49.5-112.49,36,57.64-126,57.64-126l6.86-117-156,42h-90l85.49-51,40.14-52.33,12-27.06,17.26-10.19,29.5-15.5,40.5,44,41.5,3.83,76-50.33,43-57.5,24.57-58.49L1010.41,985l23,56.5,63.5,54.5,89.5-21,33.5-84-3-81.5-18-64.5,36.5-19,9.5-18.5-36-7-26.5-9.12,32.5-16.43,7-8.5-41.5-.5-35-3.5-6-16,13.5-21.5-52.5,17.86-4.5-19.86,14-35.94-17-34.56-36.5-24-43-5.25Z" transform="translate(0)"/><g id="Capa_5" data-name="Capa 5"><path class="cls-7" d="M1199.91,855l11.72,35.55V985l-25.72,76.43-70,45.07L1045,1065.61,1015.41,979l6.54-88.45,10.89-25.09s11.74-33.79,46.41-48.13l5.54,7.8,9.56,8.7,34.56,15.61h52Z" transform="translate(0)"/></g><path class="cls-8" d="M1094.35,833.83s-6.62-4.09-15.1-16.5c-4.78-13.05,1.7-48.07,1.7-48.07l21.63-26.4,34-15.86H1147l-7.62,19.5,9.5,17.83,33.67,3.34,34.67-1.23s-37.74,22.09-31.87,23.49,22.87,13.07,23.87,13.4,38.66,1,38.66,1l-9.66,20.34-43.34,25L1138.25,857l-36.67-14.67Z" transform="translate(0)"/><path class="cls-9" d="M782.91,783.5l-22-48.5,79.5-17,52.5,32.75,61-13.19,27.48-59.06L979,631.91l50.39-3.38,53.31,17.28L1107,681.2l-16.53,66.22L1078.91,776l.34,41.33s-35,24.48-46.41,48.13S1005.33,979,1005.33,979l-54.92-60L934,960.5l-30-29L848.41,915l-30.56-26.94L799.08,869l-17.17,3.66L773.49,905l-32.08-62,38-17.5Z" transform="translate(0)"/><path class="cls-10" d="M1007.91,892.5s-11-22.5-39.5-17.5-91.5,14-113.5,2.5-38.5-24-64-11.5l17,6.66,13.34,18.84L857.41,915l54,18.5s13.5,18,18,21,21.7-32.5,21.7-32.5l53.14,62,11.16-44-2.5-32.5Z" transform="translate(0)"/><g id="Capa_7" data-name="Capa 7"><path class="cls-11" d="M971.21,622.65a83.91,83.91,0,1,1-149.94,68.69C819.69,685,955.94,601.12,971.21,622.65Z" transform="translate(0)"/><path d="M934.63,658a38.13,38.13,0,1,1-68.26,30.95C865.66,686,927.73,648.16,934.63,658Z" transform="translate(0)"/></g></g><g id="Capa_6" data-name="Capa 6"><path class="cls-12" d="M603.16,715.75,597,708.59l-21.35-33.48-16.92-46.58-3.33-77L587,474.26l49.23-71.57L688.41,383l-3,47,25.93,43.91,60-55.08,118-92.83,57.5-18.67-13,57.17,39.5,72,70-15.5,69-98,20.5-28,115.5,137,20,64.5,91-102.5,53.5,63,34.5,97.5V659l-64.77,96.67L1427.91,658s19.5-112-59-198c0,0-48.48,85.88-128.56,66.32,0,0-23.26-120.65-99.61-145.56,0,0-27.38,93-162,75,0,0-81.07-1.76-81.07-73.76,0,0-102.77,18.35-173.48,133.77,0,0-61-3-75.76-54C648.41,461.77,540.11,570,603.16,715.75Z" transform="translate(0)"/><path class="cls-13" d="M676.26,711.5a167.31,167.31,0,0,1,40.65,26.06C736.91,755,735.85,768,745.38,765s15.53-30,15.53-30l9.3,20,6.7,36.43-18,12.33-24-3.21s-36.53-55.83-36.76-57.69S676.26,711.5,676.26,711.5Z" transform="translate(0)"/><path class="cls-13" d="M1421.4,650.09S1380.17,738,1233.91,699l26,28,93.34,62.58,25.47-28.72,63.86-85.75Z" transform="translate(0)"/><path class="cls-13" d="M648.58,999s39.33,179,109.33,143l12.3-142.5s-10.09,152.84,77.7,164.5c35.76,4.75,93.66-5.33,151.83-115.67l-41.16,104.34L887.91,1230s-65.22,18.67-68.27,16-50.73-61.5-50.73-61.5l-23.53,17.29L691.91,1208l-54.83-118Z" transform="translate(0)"/><path class="cls-14" d="M859.91,1413c13-68-19.5-132.5-19.5-132.5-40.84,19.21-103.19,24-137.91,25.21,8.29-20,16.91-90.21,16.91-90.21L592.91,1361l145-21,96-29s-33,158.3-34,189,64-10,64-10l163.43-105,53.07-118.5C980.91,1392,859.91,1413,859.91,1413Z" transform="translate(0)"/><path class="cls-14" d="M1080.41,1266.5s84.95,77.2,103.5,141.5c0,0,87.13-100.06,81.56-198l18.44,36.29-36,132.6-65.75,131.24h-27.81L1107,1344Z" transform="translate(0)"/><path class="cls-14" d="M1385.71,1061.43s22.2,124.57-17.26,201.9c0,0-30.2-62.68-108.54-108.5l65.37,145.93s39.78,130.43,41.17,136.09,47.46-16.85,47.46-16.85l28.67-148Z" transform="translate(0)"/><path class="cls-15" d="M1457.92,946.1,1326.25,771.48,1215.91,708l96.67-32.89-42-33.11L1162.7,623.28l39.21-38.61-56.66-3.85-106.43,8.51-14.7,37.27s29.79-24.6,101.32-21a272.92,272.92,0,0,0-31.17,35.95c-5.6,7.92-4.47,22,10.58,20,25.41-3.48,67-5.65,106.78,7.91,0,0-44.33,5.69-75.13,39.17,0,0,214.75,46.41,339.66,338.42l32.32,31.66Z" transform="translate(0)"/><path class="cls-16" d="M1295.91,944s59,64,55.34,246c0,0-49.34-67.37-113-96,0,0,15.66,152.26-56.09,258,0,0-33.66-78.42-101.75-130.64,0,0-99.7,134-195.43,158,0,0,8.93-73.33-25-141.66,0,0-52.2,41.19-128.75,41,0,0,14.13-32.41,14.13-76.88L707.5,1210l-20.78,49.64L637.08,1332l39.18,16.93L823.91,1304l12.75,46-33.85,125.23,61.1,14.77,151.5-86,65-74,47.46,87.15,10,116.85,64-40,58-159.34,41-88.4L1347.62,1360l25.87,105.53L1442.58,1360l-14.67-194-40.58-139.38-1.42-6.62s77,60.33,77,58.67,14.5-27.17,14.5-27.17S1421.91,967,1295.91,944Z" transform="translate(0)"/><path class="cls-17" d="M538.91,907s7.94-129.66,131.67-169.44l-26.05-29-85.28,54.74s-37.34,89.6-37.34,97.47S538.91,907,538.91,907Z" transform="translate(0)"/><path class="cls-18" d="M760.58,887S718,915.08,602.45,888.21L623.87,907s84,50.46,147.68,15.4Z" transform="translate(0)"/><path class="cls-12" d="M781.91,912.41s0-26.24,14.17-19.08,25.44,21.84,48,23.34c0,0-18.33-18.5-18.5-19s-15.81-22.38-15.81-22.38-9-3.79-10.19-4.12S786,869,786,869l-8.11,8.5-1.25,15.33Z" transform="translate(0)"/><path class="cls-16" d="M1001.76,885.94s4.65,21.69-5,42.06c0,0-16.51-23.52-62.17-30,0,0-.06,15.38-4.67,27,0,0-17-16.73-55.76-10.36L907.91,931l24,30.92L950.41,918l26.05,28.1,24.95,34.59,12.6-45.9V899.5Z" transform="translate(0)"/><path class="cls-15" d="M1004.25,887.14S979.17,872.62,922,880c0,0,54.75-17.66,73.54-5.31Z" transform="translate(0)"/><path class="cls-19" d="M1100.58,696.33s-31.88-65-119.61-55.48l34.76-14.12s58.38,12.27,59,11.94,20.13,17.68,20.13,17.68l7.77,22Z" transform="translate(0)"/><path class="cls-19" d="M1022,675.11s-13.49,75.89-85.37,98.48c-63,19.8-121.06-18.59-121.06-18.59l28.56,28.33,43.5,14h66.76l42.41-23.74L1015.41,746l5.69-22,.85-22.67Z" transform="translate(0)"/><path class="cls-20" d="M936.94,675.39c15.12-2.72,25.33-5.71,22.49-13.59-3.33-9.28-27.35-1-27.35-1s-10.58,3.73-8.75,10.6S936.94,675.39,936.94,675.39Z" transform="translate(0)"/><path class="cls-21" d="M1021.1,944s17.56,110.66,85.93,117.43S1205.91,974,1205.91,974l-29,104.67L1107,1106.5l-49.78-22.5s-34-67.41-35.3-70.65S1021.1,944,1021.1,944Z" transform="translate(0)"/><path class="cls-22" d="M1079.25,817.33s79.15,40.49,157.64-6.66l1.36,14-28.84,19.83-58.5,12.5-41.4-11.49S1089.91,834.63,1079.25,817.33Z" transform="translate(0)"/><path class="cls-23" d="M1085.41,775.5s21.62-26.21,36.35-28.34c0,0-19.18,44.84,85.65,23.34l9.84-4.06-34.67,1.23-37.06-9.7-4.68-15.11L1152.91,725l-34.35,2-22.11,23.35Z" transform="translate(0)"/><path class="cls-24" d="M1032.41,876.5s23.16-28,45.08-34.5c0,0,48.63,22.93,85.21,21.18l-55.67-20-17.17-13.43-7.32-8-3.29-4.42-5.63,3.63-9.37,9.08L1050.83,842,1031.58,865Z" transform="translate(0)"/></g><g id="Capa_2" data-name="Capa 2"><path d="M971.48,622.46a87,87,0,0,1,13.44,26,87.19,87.19,0,0,1-8.9,72.51,87,87,0,0,1-9.28,12.28,88.27,88.27,0,0,1-24.49,18.87,84.56,84.56,0,0,1-29.81,9l-3.91.31c-1.3.11-2.61.07-3.91.11s-2.61,0-3.91-.09l-3.91-.23c-.65-.06-1.3-.06-1.94-.16l-1.94-.28-3.86-.58a35,35,0,0,1-3.82-.8l-3.79-.94a30.77,30.77,0,0,1-3.72-1.16L874.06,756c-1.23-.38-2.39-1-3.58-1.49s-2.36-1-3.53-1.6a14.7,14.7,0,0,1-1.71-.9l-1.69-1-3.34-1.91c-2.17-1.38-4.25-2.89-6.34-4.36a86.11,86.11,0,0,1-20.3-22.32l-1.94-3.19c-.32-.53-.65-1-1-1.59l-.83-1.67c-1.08-2.24-2.34-4.36-3.2-6.68l-1.41-3.41a12.77,12.77,0,0,1-.64-1.73l-.58-1.74L822.85,699c-.41-1.16-.61-2.37-.93-3.55l-.86-3.55-.11-.44a1.19,1.19,0,0,1,.07-.64,3.37,3.37,0,0,1,.54-.84,12.51,12.51,0,0,1,1.29-1.33c1.8-1.65,3.71-3.15,5.64-4.62,3.84-3,7.81-5.76,11.86-8.42,8.08-5.35,16.34-10.43,24.69-15.35,16.73-9.8,33.8-19,51.42-27.12a238.86,238.86,0,0,1,27-10.67,82,82,0,0,1,14.18-3.21,28.23,28.23,0,0,1,7.29-.06,12.37,12.37,0,0,1,3.56,1A7.62,7.62,0,0,1,971.48,622.46Zm-.55.38c-1.29-2-3.67-2.92-6-3.31a27.19,27.19,0,0,0-7.21,0,80.66,80.66,0,0,0-14.11,3.27,238.69,238.69,0,0,0-27,10.67,571.87,571.87,0,0,0-51.34,27.18c-8.34,4.94-16.58,10-24.64,15.4-4,2.7-8,5.4-11.93,8.27a52.72,52.72,0,0,0-5.54,4.66,13.25,13.25,0,0,0-1.15,1.35,2.51,2.51,0,0,0-.39.71.4.4,0,0,0,0,.25l.15.43,1.18,3.43c.42,1.13.73,2.29,1.23,3.39l1.46,3.3a54.08,54.08,0,0,0,3.32,6.36,73.15,73.15,0,0,0,8.29,11.57,82.16,82.16,0,0,0,21.62,17.55l3.07,1.56c1,.52,2,1.09,3.05,1.56l3.15,1.34,1.57.66a12.72,12.72,0,0,0,1.59.61c1.08.35,2.15.73,3.22,1.1a30.14,30.14,0,0,0,3.22,1L881,746a31.86,31.86,0,0,0,3.29.75A89.28,89.28,0,0,0,911,747.93a86.55,86.55,0,0,0,25.77-7,81.85,81.85,0,0,0,22.31-15.14,76.63,76.63,0,0,0,9.06-10.22,81.54,81.54,0,0,0,7.3-11.67,79.46,79.46,0,0,0,5.25-12.85,83.47,83.47,0,0,0,2.92-13.7,79.89,79.89,0,0,0-1.37-28.22A80.94,80.94,0,0,0,970.93,622.84Z" transform="translate(0)"/><g id="Capa_4" data-name="Capa 4"><path d="M610.91,724.33S481.26,624.82,562.27,474.8s192-159,192-159-86.38,78-34.19,138c0,0,102.34-180.47,296.62-201.72,0,0-70.51,105.71-37.46,153.72s133.15-102.46,124.15-153.72c0,0,163.93,90.71,172.93,213.72,0,0,87-72,48-159,0,0,324.85,239,20.56,493.76,0,0,180.86-220.2,17.6-370.75,0,0-41.16,94.47-122.17,99.74,0,0,4.11-124-107.08-189.75,0,0-55,147-154,117s-49.44-130.07-49.44-130.07-166.43,82.07-204,190.08c0,0-67.54-39-51.05-120C674.79,396.8,478.12,548.12,610.91,724.33Z" transform="translate(0)"/></g><path d="M1022,605.33s81.55-60.72,218-25.33c0,0-31.5,14.5-46,38,0,0,128,6,192,102,0,0-77.5-23.5-118.5-.5,0,0,300,135,272,514,0,0-33-134-144-190,0,0,188,277-60,582,0,0,44-210-46-316,0,0-16,177-197,348,0,0,69-172-13-296,0,0-80,181-458,266,0,0,208-150,198-304,0,0-134,92-306,34,0,0,149.5-25,184.74-151.77,5.65-20.34,12.44,28.93,21.26,9.77,0,0-12.5,62-56.5,117,0,0,111.5-9,177.5-52,0,0,15,108-17,193,0,0,194-71,257-207,0,0,72,122,81,229,0,0,132.5-190.67,98.5-340.67,0,0,114.5,119.67,127.5,246.67,0,0,61.35-270.5-48.65-422.5,0,0,101.65,17.5,138.65,72.5,0,0-63.5-247.5-283.5-343.5,0,0,26.5-27.5,95.5-32.5,0,0-80-40-159-42,0,0,12-19,49-40C1179.41,593.5,1117.48,581.33,1022,605.33Z" transform="translate(0)"/><path d="M760.91,735s18,64-15,63c0,0-33.5-69.5-81.5-93.5,0,0-34-21-63,11,0,0,26-11,55,13,0,0,34,29,48,70,11.16,32.69,23,56,57,50s37-51,31-68S773.41,745.5,760.91,735Z" transform="translate(0)"/><path d="M716.91,858s-91-37-178,49c0,0-11-88,33-133,0,0,29-38,90-56,0,0-17-19-61-3s-95,77-101,134,20,119,32,136c0,0,25.38-71.86,82.5-104.5C663.41,852.5,716.91,858,716.91,858Z" transform="translate(0)"/><path d="M838.91,725s-76,33-105-8,16-96,16-96-10.5,54.5,14.5,65.5,43-56,43-56,16-69,55-73c0,0-20,36-5,56s44-5,44-5,23-24,33-47,29-40,56-42c0,0-21,49,0,60s52-14,52-14,21-18,24-46c0,0,16,50-11,81-8.41,9.66-21.79,29-78.5,43.5C878.91,669,838.91,725,838.91,725Z" transform="translate(0)"/><path d="M732.91,835s34,46,27,83c-22.17,6.21-93.59,10.19-172.5-38.5,0,0,40.5,80.5,198.5,64.5C785.91,944,790.91,889,732.91,835Z" transform="translate(0)"/><path d="M679.91,922s-38,94-22,171,47,94,47,94,36,30,65-7c0,0-16.53,44-71.76,43s-70.24-74-70.24-74-10.66-69.67,2.67-120.33S661.25,946,679.91,922Z" transform="translate(0)"/><path d="M1006.91,892s5.5,43-5.9,70c0,0-21.1-47-62.1-59,0,0,4.5,25-7,43.1,0,0-8.43-25.1-62.22-32.1,0,0-32-1.25-50-34.5-5.5-10.17-18.81-17.56-30.4-16-11.25,1.47-16.14,12-18.34,21.93-2.36,10.68-1.77,21.9,0,32.62,7.8,47.42-14,117-14,117s-40,127,29,204c60.92,68,156-54,156-54s62-78,66-171c0,0,.09-2,.1-5.26C1018.38,980.24,1033.9,923.36,1006.91,892Zm-102.5,296.5c-118,102-133-66-133-66s-5.5-55.83,7-104c0,0,13.72-65.17,7.61-99.17-2.81-15.65-13.61-33.08-1.61-43.87,7.75-6.46,18.86-.73,24.5,7.09,12.75,17.7,26.9,36.45,50.45,40.45s28.55,3.21,42.55,15.1,27,33.9,27,52.9c0,0,20.5-27,24-52.9,0,0,34.83,25.46,46.83,81.47C993.48,1065,971.73,1130.31,904.41,1188.5Z" transform="translate(0)"/><path d="M815.52,755S874.13,811.34,955,781.6C1027.34,755,1022,675.11,1022,675.11s17.69,91-48,123.11C910.58,829.21,836.94,797.32,815.52,755Z" transform="translate(0)"/><path d="M1008,628.53s71.34-20,97,18.08c10.06,14.93,14.8,32.76,11.37,50.6-5.26,27.36-29.25,46.17-35.79,73.46-5.13,21.38-5.33,35.33-1.33,46.66a81.41,81.41,0,0,1-6.67-49,166.87,166.87,0,0,1,11.33-33c6.18-13,14.67-32.66,14.48-43.29-.13-7.07-.48-26.37-20.48-41.37-20.27-15.21-58-22.67-105.33-18Z" transform="translate(0)"/><path d="M1079.25,817.33a16.93,16.93,0,0,1-.88-2.4c-4.71-15.76-19.46-96.6,85.54-94.62,0,0-29,21.7-10,34.69s80,6,80,6-18,25-36,30c0,0,14.5,12.5,62,10.39,0,0-28.18,58.72-91.59,61.67s-89.07-45.73-89.07-45.73,24.66,36,89.07,29.67c53.17-5.23,68.59-36.39,68.59-36.39s-48.59,2.22-68.59-22.61c0,0,27.59-2.53,39.09-17.5,0,0-55,8.5-71.5-8-13.53-13.53,9.5-31,9.5-31S1077.08,741.17,1079.25,817.33Z" transform="translate(0)"/><path d="M1079.25,817.33s-79.51,30.17-70,166.67c1.57,22.5,3.67,56,27.29,92.94,40.44,63.28,113.31,33.91,113.31,33.91s46-10,66-68.91c0,0,38.07-101.69-16.93-195.14,0,0,38.47,241.22-89,246.2C1040.63,1095.71,972.58,908,1079.25,817.33Z" transform="translate(0)"/><path d="M1007.8,902.07s-.57-26.35-31.55-27.79c-34.7-1.62-88.67,13.88-88.67,13.88s54-23.16,99.33-19.16c26.62,2.35,34.19,33.07,34.19,33.07l-7.64,12.57Z" transform="translate(0)"/></g></svg>